<svg xmlns="http://www.w3.org/2000/svg" xmlns:xlink="http://www.w3.org/1999/xlink" width="463" height="379" viewBox="0 0 463 379">
    <defs>
        <linearGradient id="w5lvp687ec" x1="49.218%" x2="50%" y1="42.313%" y2="76.904%">
            <stop offset="0%" stop-color="#F7C23A"/>
            <stop offset="100%" stop-color="#FFF"/>
        </linearGradient>
        <linearGradient id="7ukh92g8rd" x1="60.715%" x2="46.143%" y1="100%" y2="13.935%">
            <stop offset="0%" stop-color="#FAD961"/>
            <stop offset="61.979%" stop-color="#F77422"/>
            <stop offset="100%" stop-color="#F76B1C"/>
        </linearGradient>
        <linearGradient id="lfhvdkhwoe" x1="78.855%" x2="39.614%" y1="72.114%" y2="34.049%">
            <stop offset="0%" stop-color="#FAD961"/>
            <stop offset="61.979%" stop-color="#F77422"/>
            <stop offset="100%" stop-color="#F76B1C"/>
        </linearGradient>
        <linearGradient id="29e8q7hnpf" x1="71.076%" x2="42.414%" y1="100%" y2="13.935%">
            <stop offset="0%" stop-color="#FAD961"/>
            <stop offset="61.979%" stop-color="#F77422"/>
            <stop offset="100%" stop-color="#F76B1C"/>
        </linearGradient>
        <linearGradient id="qhcmdoyhwg" x1="78.855%" x2="39.614%" y1="93.202%" y2="18.839%">
            <stop offset="0%" stop-color="#FAD961"/>
            <stop offset="61.979%" stop-color="#F77422"/>
            <stop offset="100%" stop-color="#F76B1C"/>
        </linearGradient>
        <linearGradient id="o4lwobyumh" x1="78.855%" x2="39.614%" y1="89.194%" y2="21.729%">
            <stop offset="0%" stop-color="#FAD961"/>
            <stop offset="61.979%" stop-color="#F77422"/>
            <stop offset="100%" stop-color="#F76B1C"/>
        </linearGradient>
        <linearGradient id="dlp4p5scgi" x1="78.855%" x2="39.614%" y1="90.537%" y2="20.761%">
            <stop offset="0%" stop-color="#FAD961"/>
            <stop offset="61.979%" stop-color="#F77422"/>
            <stop offset="100%" stop-color="#F76B1C"/>
        </linearGradient>
        <linearGradient id="ze0hweh3ej" x1="50%" x2="50%" y1="0%" y2="100%">
            <stop offset="0%" stop-color="#F7C33A"/>
            <stop offset="100%" stop-color="#F7AA3A"/>
        </linearGradient>
        <linearGradient id="g3utkotdjk" x1="50%" x2="50%" y1="0%" y2="100%">
            <stop offset="0%" stop-color="#F7C33A"/>
            <stop offset="100%" stop-color="#F7AA3A"/>
        </linearGradient>
        <linearGradient id="o9fk5ei73l" x1="49.796%" x2="50%" y1="37.557%" y2="93.547%">
            <stop offset="0%" stop-color="#F7BC3A"/>
            <stop offset="100%" stop-color="#FFF"/>
        </linearGradient>
        <linearGradient id="ulr59rh4dm" x1="49.218%" x2="50%" y1="38.063%" y2="91.777%">
            <stop offset="0%" stop-color="#F7C23A"/>
            <stop offset="100%" stop-color="#FFF"/>
        </linearGradient>
        <linearGradient id="ie346n0j0n" x1="57.368%" x2="47.348%" y1="100%" y2="13.935%">
            <stop offset="0%" stop-color="#FAD961"/>
            <stop offset="61.979%" stop-color="#F77422"/>
            <stop offset="100%" stop-color="#F76B1C"/>
        </linearGradient>
        <linearGradient id="2mng0fp2eo" x1="56.963%" x2="47.494%" y1="100%" y2="13.935%">
            <stop offset="0%" stop-color="#F77321"/>
            <stop offset="61.979%" stop-color="#F77422"/>
            <stop offset="100%" stop-color="#F76B1C"/>
        </linearGradient>
        <linearGradient id="g6azr00s7p" x1="54.457%" x2="48.396%" y1="100%" y2="13.935%">
            <stop offset="0%" stop-color="#F77321"/>
            <stop offset="61.979%" stop-color="#F77422"/>
            <stop offset="100%" stop-color="#F76B1C"/>
        </linearGradient>
        <linearGradient id="k2km6wiubq" x1="50%" x2="50%" y1="0%" y2="100%">
            <stop offset="0%" stop-color="#F7C33A"/>
            <stop offset="100%" stop-color="#F7AA3A"/>
        </linearGradient>
        <linearGradient id="soa3yftq4r" x1="78.855%" x2="39.614%" y1="97.437%" y2="15.783%">
            <stop offset="0%" stop-color="#FAD961"/>
            <stop offset="61.979%" stop-color="#F77422"/>
            <stop offset="100%" stop-color="#F76B1C"/>
        </linearGradient>
        <linearGradient id="yhic353qhs" x1="78.855%" x2="39.614%" y1="99.992%" y2="13.94%">
            <stop offset="0%" stop-color="#FAD961"/>
            <stop offset="61.979%" stop-color="#F77422"/>
            <stop offset="100%" stop-color="#F76B1C"/>
        </linearGradient>
        <linearGradient id="b893lgj0at" x1="78.855%" x2="39.614%" y1="100%" y2="13.935%">
            <stop offset="0%" stop-color="#FAD961"/>
            <stop offset="61.979%" stop-color="#F77422"/>
            <stop offset="100%" stop-color="#F76B1C"/>
        </linearGradient>
        <linearGradient id="l1qog5eg5u" x1="52.81%" x2="48.989%" y1="100%" y2="13.935%">
            <stop offset="0%" stop-color="#FAD961"/>
            <stop offset="61.979%" stop-color="#F77422"/>
            <stop offset="100%" stop-color="#F76B1C"/>
        </linearGradient>
        <linearGradient id="9jphxeuvyv" x1="52.811%" x2="48.988%" y1="100%" y2="13.935%">
            <stop offset="0%" stop-color="#FAD961"/>
            <stop offset="61.979%" stop-color="#F77422"/>
            <stop offset="100%" stop-color="#F76B1C"/>
        </linearGradient>
        <linearGradient id="fno7hawe5w" x1="78.855%" x2="39.614%" y1="55.63%" y2="45.939%">
            <stop offset="0%" stop-color="#FAD961"/>
            <stop offset="61.979%" stop-color="#F77422"/>
            <stop offset="100%" stop-color="#F76B1C"/>
        </linearGradient>
        <linearGradient id="6goepo4jix" x1="78.855%" x2="39.614%" y1="55.624%" y2="45.943%">
            <stop offset="0%" stop-color="#FAD961"/>
            <stop offset="61.979%" stop-color="#F77422"/>
            <stop offset="100%" stop-color="#F76B1C"/>
        </linearGradient>
        <linearGradient id="0bof4d6k6y" x1="78.846%" x2="39.617%" y1="100%" y2="13.935%">
            <stop offset="0%" stop-color="#FAD961"/>
            <stop offset="61.979%" stop-color="#F77422"/>
            <stop offset="100%" stop-color="#F76B1C"/>
        </linearGradient>
        <linearGradient id="x6yg9727xz" x1="78.851%" x2="39.616%" y1="100%" y2="13.935%">
            <stop offset="0%" stop-color="#FAD961"/>
            <stop offset="61.979%" stop-color="#F77422"/>
            <stop offset="100%" stop-color="#F76B1C"/>
        </linearGradient>
        <linearGradient id="r44qfjzwpC" x1="78.855%" x2="39.614%" y1="69.399%" y2="36.007%">
            <stop offset="0%" stop-color="#FAD961"/>
            <stop offset="61.979%" stop-color="#F77422"/>
            <stop offset="100%" stop-color="#F76B1C"/>
        </linearGradient>
        <linearGradient id="fubz8owpxD" x1="50%" x2="50%" y1="0%" y2="100%">
            <stop offset="0%" stop-color="#FDEE9A"/>
            <stop offset="100%" stop-color="#FAD961"/>
        </linearGradient>
        <linearGradient id="kislxypj2E" x1="78.855%" x2="39.614%" y1="50.019%" y2="49.986%">
            <stop offset="0%" stop-color="#FAD961"/>
            <stop offset="61.979%" stop-color="#F77422"/>
            <stop offset="100%" stop-color="#F76B1C"/>
        </linearGradient>
        <path id="tses7qm1ka" d="M0 0H463V379H0z"/>
        <path id="de37tltbkA" d="M0 0.397L462.308 0.397 462.308 325 0 325"/>
    </defs>
    <g fill="none" fill-rule="evenodd">
        <g>
            <g transform="translate(-903 -211) translate(903 211)">
                <mask id="rjw1cskklb" fill="#fff">
                    <use xlink:href="#tses7qm1ka"/>
                </mask>
                <use fill="#FFF" xlink:href="#tses7qm1ka"/>
                <g mask="url(#rjw1cskklb)">
                    <g>
                        <path fill="url(#w5lvp687ec)" fill-opacity=".95" d="M195.97 62.815C180.6 7.058 111.338-10.903 71.644 30.767c-.57.598-1.14 1.207-1.71 1.825-56.906 61.86-30.023 214.303 88.74 252.94 118.764 38.638 242.294-31.918 249.234-94.99 6.94-63.072-47.851-82.891-132.882-65.254-48.04 9.964-69.488-27.763-79.056-62.473" opacity=".5" transform="translate(28 40)"/>
                        <path fill="#FD6529" d="M405.46 238.898c-1.562-23.303-1.82-47.738-.085-63.94 2.266-21.167 7.39-35.902 15.234-43.795.52-.522 1.366-.526 1.889-.006.524.52.526 1.366.006 1.89-13.711 13.796-18.641 50.843-14.285 107.21l-2.758-1.359z" transform="translate(28 40)"/>
                        <path fill="url(#7ukh92g8rd)" d="M408.966 156.257s-11.163-.018-10.365-19.645c0 0 17.082 4.874 10.365 19.645" transform="translate(28 40)"/>
                        <path fill="url(#lfhvdkhwoe)" d="M408.032 166.354s-.604-11.147 19.037-11.443c0 0-3.915 17.326-19.037 11.443" transform="translate(28 40)"/>
                        <path fill="url(#29e8q7hnpf)" d="M416.57 138.823s-4.287-10.31 14.133-17.135c0 0 2.085 17.64-14.134 17.135" transform="translate(28 40)"/>
                        <path fill="url(#qhcmdoyhwg)" d="M405.524 186.611s-10.512 3.76-16.399-14.98c0 0 17.722-1.193 16.4 14.98" transform="translate(28 40)"/>
                        <path fill="url(#o4lwobyumh)" d="M406.13 197.042s-2.522-10.876 16.77-14.563c0 0-.86 17.743-16.77 14.563" transform="translate(28 40)"/>
                        <path fill="url(#dlp4p5scgi)" d="M405.539 211.406s-10.438 3.96-16.681-14.667c0 0 17.698-1.527 16.68 14.667" transform="translate(28 40)"/>
                        <path fill="#FB966E" d="M81.563 290.833l-3.042-.12-1.613-.065-4.57-.182s-42.24-71.705-15.778-95.09c8.146-7.198 22.387-1.23 19.239 31.856-2.918 30.67 5.764 63.6 5.764 63.6" transform="translate(28 40)"/>
                        <path fill="url(#ze0hweh3ej)" d="M78.521 290.713l-1.613-.064c-7.374-17.374-11.097-36.038-12.944-49.138-2.194-15.555-2.297-26.85-2.296-26.961-.004-.404.321-.733.724-.734.403-.004.733.32.735.722.001.113.102 11.329 2.286 26.793 1.858 13.164 5.621 31.98 13.108 49.382" transform="translate(28 40)"/>
                        <path fill="#FD6529" d="M89.954 305.199l-4.13 1.534-2.193.813-6.209 2.301s-96.395-72.279-74.066-118.268c6.873-14.159 29.23-14.118 43.457 31.847 13.192 42.608 43.141 81.773 43.141 81.773" transform="translate(28 40)"/>
                        <path fill="url(#g3utkotdjk)" d="M85.823 306.733l-2.192.812c-19.534-19.106-34.907-41.97-44.675-58.446-11.6-19.562-18.029-34.598-18.091-34.748-.23-.537.02-1.158.559-1.384.537-.23 1.157.021 1.385.556.064.151 6.448 15.082 17.983 34.528 9.819 16.555 25.33 39.601 45.031 58.682" transform="translate(28 40)"/>
                        <path fill="#FD6529" d="M419.448 309.289c-.047-1.666-.243-3.35-.608-5.02-3.466-15.864 5.962-18.856 18.393-23.866 12.426-5.01 13.905-19.893 5.105-32.261-8.803-12.371 7.012-22.311 1.189-40.925-5.823-18.616-26.05-6.234-30.475 10.927-3.179 12.339-19.35 9.669-25.337 25.672-5.203 13.89 12.231 26.72-7.904 33.089-6.43 2.03-9.986 6.967-11.847 12.743-2.144 6.653-1.723 13.553.724 19.64h50.76z" transform="translate(28 40)"/>
                        <path fill="#F7C23A" d="M394.82 309.289l33.165-81.873c.314-.775-.061-1.66-.837-1.973-.774-.314-1.658.062-1.973.837l-33.624 83.009h3.269z" transform="translate(28 40)"/>
                        <path fill="#403657" d="M118.486 61.766s.697-14.74-8.268-17.57c-13.96-4.41-17.846 2.83-20 7.613-2.762 6.131-1.585 18.157 6.745 19.32 12.434 1.733 20.754-5.245 21.523-9.363" transform="translate(28 40)"/>
                        <path fill="#403657" d="M127.485 111.056c7.255 0 13.522-5.084 15.008-12.186 1.07-5.114 2.115-9.643 2.115-12.187v-.065c.065-.804.1-1.608.107-2.4.096-11.63-7.075-32.874-32.296-29.498 0 0-20.928 2.388-23.31 22.84 0 0-.992 9.434-1.652 16.267l-.036.36c-.92 9.03 6.18 16.87 15.257 16.87h24.807z" transform="translate(28 40)"/>
                        <path fill="#F7C23A" d="M157.428 135.366s4.46 35.331 9.554 53.469c0 0 7.238-3.371 16.712-7.948 10.27-4.962 25.038-14.016 25.038-14.016l3.732 8.99s-38.145 36.002-50.78 38.04c-12.636 2.038-20.38-43.204-20.38-43.204l16.124-35.331zM93.107 128.406s-21.34 6.294-39.718 10.44c0 0-.477-7.97-.958-18.48-.522-11.394.417-28.69.417-28.69l-9.683.993s-13.521 50.68-9.304 62.763c4.218 12.084 57.777-4.843 57.777-4.843l1.469-22.183z" transform="translate(28 40)"/>
                        <path fill="#FFA681" d="M52.293 92.865s4.914-1.466 6.833-5.058c1.92-3.592 7.223-10.825 3.95-13.503-1.195-.978-2.056 3.289-5.15 5.13 0 0-1.826-4.694-2.51-8.421-.603-3.279-2.457-9.407-3.337-12.238-.242-.776-1.369-.748-1.545.045-.284 1.281-.249 3.619.882 7.881 0 0-3.23-10.131-5.154-10.324-1.923-.192 2.348 12.401 2.348 12.401s-4.309-9.232-5.838-8.706c-.93.32 2.125 10.647 2.125 10.647s-4.802-8.335-5.03-5.568c-.067.806 6.946 18.177 3.298 27.519 0 0 6.037 1.691 9.128.195" transform="translate(28 40)"/>
                        <path fill="url(#o9fk5ei73l)" d="M156.63 272.256l.17.755c-16.618 11.25-78.775 3.568-78.775 3.568.106-1.303.245-2.667.427-4.078.193-1.572.434-3.201.71-4.885.752-4.524 1.76-9.417 2.89-14.451.363-1.585.727-3.193 1.11-4.81 1.123-4.804 2.316-9.677 3.446-14.423.392-1.632.775-3.24 1.146-4.841.518-2.221 1.008-4.406 1.478-6.524.613-2.818 1.158-5.525 1.616-8.074.309-1.715.577-3.36.783-4.92.237-1.652.399-3.213.498-4.66-.988-3.65-1.91-7.227-2.767-10.697-.426-1.766-.845-3.493-1.256-5.2-1.276-5.465-2.4-10.666-3.38-15.538-.346-1.771-.69-3.493-1.003-5.173-1.086-5.746-1.964-10.946-2.671-15.484-.273-1.81-.53-3.497-.755-5.09-.25-1.742-.462-3.354-.648-4.817-.834-6.433-1.122-10.08-1.122-10.08.146-.12.3-.226.458-.34 1.885-1.34 4.833-2.601 8.109-3.72 3.458-1.185 7.284-2.216 10.654-3.03.51-.123 1.012-.241 1.502-.356 4.43-1.035 7.74-1.636 7.74-1.636 15.074 3.158 19.373 1.127 19.373 1.127l7.663 2.26.9.316 5.584 1.96.226.083 10.014 3.525 6.678 2.343-2.592 11.955-1.13 5.22-3.415 15.736-1.122 5.2-3.4 15.68-1.117 5.15-2.814 12.994.562 2.48 1.098 4.819 1.743 7.658 1.584 6.928 1.09 4.8 3.28 14.445 1.096 4.774 3.252 14.278 1.087 4.773z" transform="translate(28 40)"/>
                        <path fill="#FFA681" d="M134.927 127.455c-1.605 9.42-6.172 18.898-15.668 19.922-11.474 1.24-17.42-13.15-20.01-21.99 4.43-1.034 9.022-2.046 9.022-2.046 15.073 3.157 17.98 1.234 17.98 1.234l7.774 2.564.901.316z" transform="translate(28 40)"/>
                        <path fill="#FFF" d="M118.092 139.463c-12.023 0-14.898-14.849-14.926-15.002-.059-.322.154-.63.475-.69.323-.058.631.153.691.475.11.596 2.837 14.608 14.458 14.013 10.171-.514 10.769-11.802 10.79-12.282.013-.327.286-.583.617-.567.327.013.581.29.567.616-.005.128-.658 12.85-11.914 13.417-.257.014-.509.02-.758.02" transform="translate(28 40)"/>
                        <path fill="#E55D0E" d="M96.524 135.369c0 1.62-1.314 2.935-2.935 2.935s-2.935-1.315-2.935-2.935c0-1.621 1.314-2.935 2.935-2.935 1.62 0 2.935 1.314 2.935 2.935M90.645 149.688c0 1.621-1.314 2.935-2.935 2.935-1.62 0-2.935-1.314-2.935-2.935 0-1.62 1.314-2.935 2.935-2.935s2.935 1.314 2.935 2.935M109.385 156.459c0 1.62-1.315 2.935-2.936 2.935-1.62 0-2.934-1.315-2.934-2.935 0-1.621 1.314-2.936 2.934-2.936 1.621 0 2.936 1.315 2.936 2.936M96.314 164.464c.601 1.505-.13 3.213-1.637 3.814-1.505.6-3.213-.131-3.814-1.636-.6-1.505.132-3.213 1.637-3.815 1.505-.6 3.213.132 3.814 1.637M121.755 169.885c0 1.62-1.314 2.935-2.935 2.935-1.62 0-2.935-1.315-2.935-2.935 0-1.621 1.314-2.936 2.935-2.936s2.935 1.315 2.935 2.936M140.473 175.931c0 1.621-1.314 2.936-2.935 2.936s-2.935-1.315-2.935-2.936c0-1.62 1.314-2.935 2.935-2.935 1.62 0 2.935 1.315 2.935 2.935M144.239 138.303c0 1.621-1.313 2.935-2.935 2.935-1.621 0-2.934-1.314-2.934-2.935s1.313-2.935 2.934-2.935c1.622 0 2.935 1.314 2.935 2.935M122.942 188.626c0 1.62-1.314 2.935-2.935 2.935-1.62 0-2.935-1.315-2.935-2.935 0-1.621 1.314-2.936 2.935-2.936s2.935 1.315 2.935 2.936M104.862 197.725c0 1.621-1.313 2.935-2.935 2.935-1.62 0-2.934-1.314-2.934-2.935 0-1.62 1.314-2.935 2.934-2.935 1.622 0 2.935 1.314 2.935 2.935M102.756 181.153c0 1.621-1.314 2.935-2.935 2.935s-2.935-1.314-2.935-2.935c0-1.62 1.314-2.935 2.935-2.935 1.62 0 2.935 1.314 2.935 2.935M131.669 157.225c0 1.621-1.314 2.936-2.935 2.936s-2.935-1.315-2.935-2.936c0-1.62 1.314-2.935 2.935-2.935 1.62 0 2.935 1.315 2.935 2.935M147.895 153.523c0 1.621-1.313 2.936-2.935 2.936-1.621 0-2.934-1.315-2.934-2.936 0-1.62 1.313-2.935 2.934-2.935 1.622 0 2.935 1.314 2.935 2.935M137.538 193.481c0 1.62-1.314 2.935-2.935 2.935-1.62 0-2.935-1.315-2.935-2.935s1.314-2.936 2.935-2.936 2.935 1.315 2.935 2.936M138.325 216.701c0 1.621-1.314 2.936-2.935 2.936-1.62 0-2.935-1.315-2.935-2.936s1.314-2.935 2.935-2.935 2.935 1.314 2.935 2.935M123.387 207.013c.601 1.505-.13 3.213-1.637 3.814-1.505.602-3.213-.13-3.814-1.637-.6-1.505.132-3.213 1.637-3.814 1.505-.6 3.212.131 3.814 1.637M103.408 215.612c.6 1.506-.132 3.213-1.637 3.814-1.505.602-3.213-.13-3.814-1.636-.601-1.505.132-3.213 1.637-3.814 1.505-.6 3.212.131 3.814 1.636" transform="translate(28 40)"/>
                        <path fill="#9C78ED" d="M162.848 309.268L162.24 305.611 159.872 291.427 159.06 286.568 156.799 273.01 152.689 273.196 98.198 275.667 78.026 276.578 76.729 287.122 76.122 292.034 74.331 306.599 74.002 309.268z" transform="translate(28 40)"/>
                        <path fill="url(#ulr59rh4dm)" d="M162.845 309.268l-.558-3.305-.046-.346-.393-2.335-.393-2.313-1.595-9.548-.462-2.82-.346-2.035-.046-.3-2.059-12.369-.138-.879-.185-.763-.161-.67-.925-4.092-1.828-7.999-.531-2.289-.901-4-1.088-4.786-.74-3.282-.53-2.289-2.012-8.854-.74-3.238-.347-1.57-.161-.718-1.41-6.22c-22.148 6.543-45.615 2.66-56.019.325-.462 2.103-.97 4.3-1.478 6.52-.117.485-.233.97-.347 1.455l-.556 2.29c-.069.37-.161.716-.254 1.086-.856 3.63-1.757 7.328-2.636 11.005-.184.763-.346 1.526-.531 2.266-.093.392-.186.762-.278 1.155-.37 1.62-.74 3.237-1.11 4.81-.462 2.103-.901 4.161-1.317 6.195-.163.763-.324 1.503-.463 2.243-.415 2.058-.785 4.068-1.11 6.011-.276 1.687-.507 3.305-.692 4.901-.07.486-.117.971-.186 1.433-.07.786-.161 1.55-.23 2.312 0 .116-.025.208-.025.324l-1.293 10.543-.209 1.64-.276 2.29-.116.97-1.434 11.537-.278 2.312-.092.74-.32 2.657h88.845z" transform="translate(28 40)"/>
                        <path fill="#F97853" d="M136.043 88.026s3.603-4.564 6.282-.79c2.678 3.774-1.11 14.922-7.668 12.2l1.386-11.41z" transform="translate(28 40)"/>
                        <path fill="#EA5143" d="M136.09 95.992c.241 0 .464-.152.533-.385 1.016-3.441 4.768-4.837 4.806-4.85.285-.104.43-.408.321-.68-.108-.271-.428-.408-.713-.306-.176.063-4.31 1.589-5.482 5.552-.082.28.09.57.384.649.05.014.101.02.15.02" transform="translate(28 40)"/>
                        <path fill="#EA5143" d="M139.877 94.258c.103 0 .207-.027.3-.084.257-.158.331-.483.165-.728-.027-.04-.69-1.003-2.08-1.593-.278-.119-.607 0-.732.265s0 .578.28.696c1.073.457 1.595 1.195 1.6 1.202.106.157.285.242.467.242" transform="translate(28 40)"/>
                        <path fill="#FFF" d="M134.42 99.365c-.619.69-1 1.599-1 2.596 0 2.153 1.752 3.904 3.905 3.904 2.153 0 3.905-1.751 3.905-3.904 0-1.242-.58-2.346-1.486-3.06-.454-.36-.988-.62-1.572-.75-.099-.264-.05-.511.141-.74.746.163 1.425.504 1.992.977 1.025.852 1.677 2.14 1.677 3.572 0 2.57-2.088 4.658-4.657 4.658-2.567 0-4.657-2.087-4.657-4.657 0-1.108.393-2.12 1.041-2.918l.711.322" transform="translate(28 40)"/>
                        <path fill="#FFA681" d="M108.27 111.345v13.675s6.357 4.905 11.315 5.331c4.954.432 6.666-5.414 6.666-5.414V112.21l-17.98-.865z" transform="translate(28 40)"/>
                        <path fill="#F97853" d="M108.27 112.685v5.455c3.328 3.692 9.235 5.001 17.98 3.71v-8.3l-17.98-.865z" transform="translate(28 40)"/>
                        <path fill="#FFA681" d="M138.208 93.225c-.158 1.32-.344 2.664-.582 4.002-1.57 8.893-7.195 18.498-14.298 20.11-15.337 3.48-21.706-8.565-24.158-17.452-.271-.987.237-2.118.023-3.286-.508-2.77-1.628-5.916-1.881-9.018-.176-2.15-.3-4.271-.39-6.188-.25-5.404 2.88-10.37 7.773-12.31 7.05-2.804 17.757-5.024 27.898.923 3.745 2.197 6.095 6.263 6.18 10.716.062 3.4-.023 7.846-.565 12.503" transform="translate(28 40)"/>
                        <path fill="#F97853" d="M118.758 100.106c-.286 0-.538-.206-.587-.497-.054-.324.164-.631.489-.686l2.046-.344-2.819-7.506c-.115-.308.04-.652.348-.767.308-.115.652.04.767.348l3.327 8.86-3.472.584c-.033.005-.067.008-.099.008" transform="translate(28 40)"/>
                        <path fill="#403657" d="M126.096 90.173c0 1.312.676 2.376 1.511 2.376.834 0 1.51-1.064 1.51-2.376 0-1.312-.676-2.376-1.51-2.376-.835 0-1.51 1.064-1.51 2.376M109.398 90.173c0 1.312.676 2.376 1.51 2.376.835 0 1.51-1.064 1.51-2.376 0-1.312-.675-2.376-1.51-2.376-.834 0-1.51 1.064-1.51 2.376M132.049 83.94c-1.215-.236-3.671-.626-6.287-.535-.688.025-1.24.544-1.145 1.092l.002.013c.076.438.545.732 1.096.69 1.783-.134 6.446-.105 8.617.54.06-.313-.15-.647-.456-.94-.465-.442-1.118-.72-1.827-.86M107.76 84.226c1.212-.253 3.662-.677 6.28-.622.688.016 1.246.527 1.16 1.076l-.002.014c-.07.438-.535.74-1.085.705-1.787-.11-6.448-.017-8.61.66-.066-.315.14-.65.444-.948.457-.448 1.105-.737 1.813-.885" transform="translate(28 40)"/>
                        <path fill="#FFF" d="M126.096 103.653c-.44 2.088-1.909 5.93-6.854 5.93-4.956 0-6.346-3.511-6.823-5.93h13.677z" transform="translate(28 40)"/>
                        <path fill="#F97853" d="M119.314 113.174c1.427 0 2.687-.77 2.74-.801.274-.17.36-.53.19-.804-.17-.274-.529-.36-.804-.191-.01.006-1.038.628-2.126.628-1.178 0-2.233-.624-2.244-.63-.277-.166-.635-.077-.8.199-.167.276-.079.634.196.8.054.033 1.336.799 2.848.799" transform="translate(28 40)"/>
                        <path fill="#403657" d="M138.828 91.83c-.143.118-.28.077-.41-.157-2.027-3.572-.123-10.696-6.117-13.428-4.566-2.083-6.205-6.356-6.205-6.356-1.044 1.787-3.764 3.426-3.764 3.426s-6.896 4.085-14.062 6.847c-2.13.82-3.647 1.654-4.709 2.368l.127.037s-1.984 3.223-.532 8.233c1.452 5.008-.416 13.273-3.639 15.18.057-.14 2.475-5.855 1.11-10.518-.788-2.672-.78-6.925-1.528-9.474-.825-.568-2.735-1.528-3.382-1.912-.184-2.192-.317-4.353-.41-6.307-.263-5.509 3.036-10.57 8.194-12.55 7.431-2.857 18.717-5.119 29.408.943 3.947 2.24 6.425 6.384 6.516 10.921.065 3.465-.026 7.998-.597 12.746" transform="translate(28 40)"/>
                        <path fill="#FFA681" d="M99.1 87.989s-4.19-5.083-6.661-1.418c-2.472 3.666 1.178 14.9 7.23 12.259l-.57-10.841z" transform="translate(28 40)"/>
                        <path fill="#FFF" d="M99.268 99.011c.434.82.583 1.794.341 2.761-.523 2.089-2.648 3.364-4.737 2.841-2.088-.522-3.363-2.647-2.84-4.736.301-1.204 1.133-2.135 2.185-2.609.527-.237 1.108-.361 1.706-.345.104-.223.157-.465.043-.751-.764-.024-1.506.142-2.17.464-1.2.578-2.146 1.667-2.494 3.059-.623 2.492.896 5.024 3.388 5.648 2.49.622 5.025-.896 5.648-3.388.27-1.074.133-2.152-.3-3.083-.257.047-.514.094-.77.139" transform="translate(28 40)"/>
                        <path fill="#F97853" d="M98.192 95.073c-.224 0-.429-.147-.492-.373-.938-3.343-4.4-4.698-4.435-4.71-.264-.102-.397-.395-.297-.66.1-.263.395-.397.66-.297.161.061 3.977 1.541 5.057 5.39.076.272-.082.555-.355.632-.046.012-.092.018-.138.018" transform="translate(28 40)"/>
                        <path fill="#F97853" d="M94.697 93.39c-.095 0-.19-.026-.276-.082-.238-.153-.306-.47-.153-.707.025-.04.638-.973 1.919-1.547.257-.116.56 0 .676.258.115.258 0 .56-.258.676-.991.443-1.473 1.16-1.477 1.167-.098.152-.263.235-.431.235" transform="translate(28 40)"/>
                        <path fill="#FFA681" d="M320.983 198.357c-9.748 6.997-25 11.798-25 11.798l-3.123-11.232-2.436-8.762-1.719-6.177-17.48-.012c.946 3.276 1.924 6.622 2.906 9.918 1.261 4.251 2.52 8.414 3.715 12.252 1.687 5.402 3.243 10.152 4.497 13.545.293.792.634 1.654 1.015 2.574 2.336 6.312 4.223 13.157 13.141 8.862 7.85-3.78 18.496-9.022 23.815-12.5l.67-20.266z" transform="translate(28 40)"/>
                        <path fill="#F97853" d="M274.132 193.89c1.26 4.25 2.519 8.414 3.715 12.251 7.136-.756 12.075-4.292 15.014-7.218l-2.435-8.762-16.294 3.73z" transform="translate(28 40)"/>
                        <path fill="#F77321" d="M270.42 132.587s18.236 43.489 26.079 57.579c0 0-10.991 9.345-21.697 9.6 0 0-6.17-47.747-4.381-67.18" transform="translate(28 40)"/>
                        <path fill="#F7C23A" d="M227.726 309.3c.184-3.044.356-5.94.514-8.626.646-10.978 1.06-18.471 1.06-18.471l-4.3-.192-2.422-.11-29.23-1.298s-.531 8.38-1.158 20.686c-.13 2.519-.261 5.202-.394 8.01h35.93z" transform="translate(28 40)"/>
                        <path fill="#F5A827" d="M225.001 282.01l4.3.192s-.416 7.495-1.06 18.471c-11.232.938-23.492 1.317-36.052.615.627-12.305 1.16-20.685 1.16-20.685l29.228 1.298 2.424.11z" transform="translate(28 40)"/>
                        <path fill="#9C78ED" d="M237.146 309.3h35.93c-.133-2.81-.266-5.492-.394-8.011-.627-12.306-1.159-20.686-1.159-20.686l-29.23 1.299-2.422.109-4.3.192s.415 7.493 1.06 18.47c.16 2.687.331 5.583.515 8.627" transform="translate(28 40)"/>
                        <path fill="#7846D1" d="M239.87 282.01l-4.3.192s.416 7.495 1.062 18.471c11.23.938 23.49 1.317 36.05.615-.626-12.305-1.16-20.685-1.16-20.685l-29.228 1.298-2.423.11z" transform="translate(28 40)"/>
                        <path fill="url(#ie346n0j0n)" d="M187.005 259.762c-.004.603 0 1.195 0 1.78.013 10.69.066 18.975.12 23.042 10.323 2.796 20.648 4.604 30.977 5.44l1.403.104c.25.019.501.036.751.05.555.038 1.113.074 1.663.1.615.04 1.227.07 1.847.101 7.027.325 14.053.197 21.084-.377 1.42-.12 2.832-.255 4.252-.41l.273-.025c.361-.04.721-.084 1.087-.129l.654-.078c8.175-.976 16.35-2.574 24.528-4.776.022-1.846.03-4.587.03-8.038 0-.642 0-1.303-.003-1.993v-.003c-.005-4.939-.036-11.086-.088-18.034l-.014-1.798c-.039-4.625-.088-9.581-.149-14.748-.009-.599-.013-1.196-.022-1.798-.066-5.3-.145-10.804-.238-16.392-.057-3.415-.118-6.857-.189-10.304-.07-3.49-.145-6.987-.228-10.46-.018-.757-.035-1.513-.058-2.27-.8-32.852-2.185-63.048-4.476-66.416-1.587-2.33-5.224-5.07-9.507-7.83-.523-.335-1.055-.674-1.596-1.011-1.825-1.14-16.71-6.197-18.6-7.31l-15.733-1.099c-.097.058-15.14 5.133-15.237 5.184-.646.37-1.302.745-1.948 1.118-5.57 3.213-11.067 6.6-14.233 9.516-.462.422-.875.834-1.227 1.239-.282.321-.532.633-.735.941-.189.278-.373.743-.549 1.38-1.904 6.917-2.902 34.102-3.4 63.677-.035 2.12-.065 4.252-.096 6.39l-.04 2.817c-.013.647-.022 1.297-.026 1.944l-.013.971c-.022 1.61-.04 3.215-.053 4.811l-.04 3.54c-.14 14.898-.184 29.364-.17 41.154" transform="translate(28 40)"/>
                        <path fill="#FFA681" d="M158.87 302.003c-.387 4.199 4.727 1.922 3.28-6.587-1.442-8.51 2.657-16.213 4.424-15.966 1.772.25-1.464 9.29.11 12.549 1.57 3.259 3.601-3.073 5.624-6.912 2.098-3.988 1.974-12.69 1.02-18.9-.954-6.212 10.303-43.936 10.36-54.868l1.372-4.634 5.021-16.97 7.863-26.571s-4.71-20.113-12.65-18.385c0 0-4.205 14.01-8.699 29.808-.76 2.683-1.53 5.418-2.29 8.144-3.202 11.455-6.209 22.765-7.608 29.475-3.694 17.716-3.979 54.543-3.979 54.543s-6.517 13.53-6.67 19.549c-.164 6.42 3.205 11.526 2.822 15.725" transform="translate(28 40)"/>
                        <path fill="url(#2mng0fp2eo)" d="M174.305 182.71l10.755 23.975 5.022-16.97-13.486-15.148c-.761 2.683-1.531 5.418-2.291 8.144" transform="translate(28 40)"/>
                        <path fill="url(#g6azr00s7p)" d="M173.771 175.57c4.718 8.091 9.516 16.138 14.295 24.198 1.575-5.272 3.206-10.334 4.736-14.986.005-.013.01-.022.013-.035.612-1.86 1.21-3.654 1.781-5.369.01-.03.018-.062.031-.088.198-.602.392-1.196.59-1.777v-.004c2.282-6.899 4.05-12.382 4.555-15.579 1.363-8.605-2.353-25.464-7.585-28.789-.137.304-.549-.633-.795-.06-.919 2.123-5 7.368-7.019 12.478-.26.651-.523 1.328-.796 2.018-2.924 7.515-6.499 17.29-9.806 27.993" transform="translate(28 40)"/>
                        <path fill="#FBDE95" d="M260.75 190.374c.126 0 .254-.031.374-.096.408-.221.572-.755.365-1.192l-2.971-6.278c-.206-.438-.706-.613-1.115-.391-.408.22-.572.755-.365 1.19l2.972 6.28c.145.309.437.487.74.487M266.942 185.23c.106.071.23.117.364.13.456.043.86-.317.9-.806l.582-7.009c.041-.487-.296-.919-.752-.96-.456-.045-.86.316-.9.803l-.582 7.01c-.029.345.131.66.388.832M250.98 174.361c.397 0 .75-.308.816-.742l1.074-6.944c.074-.482-.232-.939-.683-1.019-.454-.079-.879.247-.954.73l-1.073 6.944c-.075.483.231.94.683 1.02.046.007.091.011.136.011M224.287 176.945c.144 0 .289-.039.42-.124.395-.249.526-.793.292-1.214l-3.351-6.056c-.233-.42-.742-.56-1.136-.31-.394.25-.525.792-.291 1.214l3.352 6.055c.154.28.43.435.714.435M257.078 149.804c.154 0 .31-.046.449-.143l5.526-3.82c.384-.267.495-.816.246-1.227-.25-.41-.762-.529-1.147-.263l-5.524 3.822c-.385.267-.495.815-.247 1.226.159.262.426.405.697.405M232.465 206.219c.126 0 .255-.03.374-.096.409-.22.572-.755.365-1.191l-2.97-6.28c-.208-.436-.707-.611-1.115-.39-.409.22-.571.755-.365 1.19l2.972 6.28c.144.309.436.487.74.487M245.52 154.528c.276 0 .546-.147.704-.416.242-.415.125-.963-.264-1.223l-5.577-3.734c-.387-.259-.899-.135-1.142.281-.243.415-.125.963.262 1.223l5.578 3.734c.136.091.29.135.44.135M258.785 128.419c-.013.172.02.339.095.479.127.26.378.445.674.466.456.036.85-.334.883-.821l.264-4.042c-.522-.334-1.053-.672-1.596-1.011l-.32 4.929zM266.22 166.945c.275 0 .545-.147.702-.416.243-.415.126-.963-.263-1.223l-5.577-3.734c-.387-.259-.899-.134-1.142.281-.243.415-.125.963.262 1.223l5.579 3.734c.135.091.288.135.438.135M221.743 136.304c.156 0 .315-.047.455-.145.382-.27.488-.82.236-1.23l-3.18-5.161c-.251-.41-.766-.524-1.148-.252-.383.269-.488.819-.237 1.228l3.18 5.161c.16.26.424.4.694.4M218.892 225.471c.218 0 .435-.09.598-.272l4.557-5.077c.317-.353.306-.915-.024-1.254-.33-.338-.855-.327-1.172.026l-4.557 5.077c-.318.353-.306.915.024 1.254.16.166.367.246.574.246M235.637 224.416c.218 0 .435-.091.598-.272l4.557-5.077c.318-.353.306-.915-.024-1.254-.33-.338-.855-.327-1.172.027l-4.558 5.076c-.316.353-.305.914.025 1.253.161.166.367.247.574.247M247.677 258.73c.076-.218.072-.468-.03-.694l-2.844-6.346c-.198-.44-.694-.628-1.106-.416-.413.212-.587.741-.39 1.183l2.846 6.345c.198.443.692.628 1.106.416.2-.102.345-.28.418-.488M199.622 279.669c.076-.218.072-.468-.029-.694l-2.845-6.346c-.198-.442-.693-.628-1.105-.416-.414.212-.587.74-.39 1.183l2.845 6.345c.198.442.693.628 1.106.416.201-.103.345-.281.418-.488M220.257 290.18c.555.038 1.11.073 1.661.1l.58-3.953c.07-.483-.239-.937-.691-1.012-.452-.074-.875.257-.946.74l-.604 4.125zM213.639 278.232c.179-.133.308-.34.344-.59L215 270.69c.072-.484-.238-.937-.69-1.014-.453-.075-.876.255-.947.74l-1.02 6.952c-.07.484.24.937.692 1.013.22.038.434-.022.603-.149M253.647 220.1c.141 0 .284-.04.415-.12.397-.245.531-.788.302-1.212l-3.296-6.09c-.23-.425-.736-.568-1.133-.323-.396.244-.532.787-.303 1.211l3.297 6.091c.154.284.432.442.718.442M243.969 204.876c.3 0 .59-.175.737-.48l3.017-6.254c.21-.435.05-.97-.358-1.195-.405-.225-.906-.053-1.117.382l-3.016 6.254c-.21.435-.05.97.357 1.194.121.068.251.099.38.099M270.181 203.959c.086.109.197.193.312.246.28.123.61.079.855-.141l3.393-3.046c-.017-.757-.034-1.513-.054-2.27l-4.407 3.958c-.35.316-.395.875-.099 1.253M244.011 138.525c.301 0 .591-.175.738-.48l3.017-6.254c.21-.435.05-.97-.358-1.194-.405-.225-.906-.054-1.116.381l-3.016 6.254c-.21.435-.05.97.356 1.194.121.067.251.1.38.1M224.677 161.437c.052 0 .105-.005.157-.016.45-.093.744-.558.657-1.039l-1.248-6.909c-.085-.48-.522-.795-.97-.703-.45.093-.743.56-.657 1.04l1.247 6.908c.077.425.424.72.814.72M235.441 167.504c.053 0 .105-.005.158-.016.45-.092.744-.557.657-1.04l-1.248-6.908c-.086-.481-.522-.794-.97-.703-.45.094-.744.559-.658 1.039l1.25 6.91c.075.424.422.718.811.718M227.73 144.707c.274 0 .543-.146.7-.412l3.527-5.94c.245-.414.13-.962-.256-1.225-.388-.262-.9-.139-1.144.273l-3.526 5.942c-.246.413-.132.962.255 1.224.138.094.292.138.444.138M260.076 205.974c.227-.259.295-.649.144-.988l-2.834-6.352c-.198-.44-.693-.629-1.106-.418-.414.211-.59.74-.391 1.182l2.833 6.351c.198.442.693.63 1.106.418.097-.048.18-.115.248-.193M238.745 187.548c.33 0 .645-.214.772-.564l2.398-6.553c.167-.456-.043-.971-.47-1.15-.427-.177-.907.047-1.074.503l-2.397 6.554c-.167.456.042.97.469 1.148.1.042.2.062.302.062M212.4 228.023c.124 0 .252-.03.373-.096.408-.22.571-.754.365-1.19l-2.97-6.28c-.207-.437-.707-.612-1.116-.39-.408.221-.57.754-.365 1.191l2.971 6.28c.146.308.438.485.741.485M256.063 273.151c.002.135.031.271.094.4.21.434.711.604 1.117.378l5.842-3.237c.407-.225.566-.76.355-1.195-.21-.435-.712-.605-1.118-.379l-5.842 3.237c-.288.158-.45.473-.448.796M271.925 277.177c0 .137.027.272.09.4.21.435.712.603 1.119.378l2.54-1.407c0-.642 0-1.302-.004-1.992l-3.298 1.825c-.288.158-.452.475-.447.796M247.376 285.004l1.998 4.564c.362-.04.724-.084 1.09-.127l.653-.08-2.24-5.11c-.193-.443-.687-.637-1.103-.426-.415.207-.595.735-.398 1.179M201.616 212.012c.4 0 .75-.309.817-.743l1.074-6.944c.074-.482-.23-.938-.683-1.018-.454-.08-.879.247-.954.73l-1.073 6.944c-.075.483.231.939.683 1.019.046.007.092.012.136.012M200.932 160.781c.144 0 .29-.04.421-.124.395-.249.525-.793.291-1.215l-3.35-6.055c-.234-.42-.743-.56-1.137-.31-.394.248-.524.792-.29 1.214l3.351 6.054c.154.281.43.436.714.436M211.71 185.394c.153 0 .31-.046.45-.143l5.524-3.82c.384-.267.494-.816.246-1.227-.25-.412-.763-.529-1.147-.263l-5.525 3.821c-.384.267-.495.815-.246 1.227.16.261.425.405.697.405M270.208 226.674c.126 0 .254-.03.374-.096.408-.22.572-.754.365-1.191l-2.971-6.278c-.206-.438-.705-.613-1.114-.391-.41.22-.572.754-.365 1.19l2.97 6.28c.146.309.438.486.74.486M202.295 194.932c.276 0 .546-.147.704-.416.243-.416.125-.963-.263-1.223l-5.577-3.734c-.388-.259-.9-.135-1.143.281-.242.415-.125.962.263 1.223l5.577 3.733c.137.092.29.136.44.136M215.666 203.814c.203.2.495.288.78.205.443-.129.703-.616.584-1.089l-1.727-6.79c-.121-.472-.575-.752-1.017-.624-.443.13-.703.616-.583 1.09l1.726 6.79c.043.166.127.31.237.418M192.128 132.139l1.443 2.339c.16.255.424.396.695.396.156 0 .312-.044.452-.145.383-.268.49-.818.239-1.227l-1.604-2.603c-.46.422-.871.835-1.225 1.24M185.821 147.577l1.533 2.49c.161.26.424.4.695.4.156 0 .313-.05.457-.146.382-.273.484-.823.234-1.23l-2.175-3.532c-.243.65-.489 1.328-.744 2.018M257.535 248.597c.219 0 .436-.09.599-.272l4.556-5.077c.318-.352.307-.915-.023-1.254-.33-.339-.856-.327-1.173.026l-4.557 5.076c-.317.355-.306.916.025 1.255.16.165.367.246.573.246M227.215 266.346c.218 0 .435-.093.598-.274l4.557-5.077c.317-.353.306-.913-.024-1.254-.33-.339-.855-.327-1.173.028l-4.556 5.075c-.317.355-.306.915.024 1.254.161.166.367.248.574.248M218.788 259.296c.137-.181.208-.42.178-.67l-.822-6.981c-.057-.486-.472-.83-.926-.77-.454.062-.776.505-.719.99l.822 6.984c.057.486.471.83.926.768.221-.03.411-.15.541-.321M236.058 278.975c.217 0 .435-.092.598-.273l4.556-5.077c.318-.353.307-.914-.023-1.253-.33-.34-.856-.328-1.173.026l-4.557 5.076c-.317.354-.306.914.025 1.253.16.166.367.248.574.248M187.005 259.764c-.004.602 0 1.195 0 1.78l5.143.462c.457.045.86-.32.897-.808.041-.49-.3-.915-.757-.96l-5.283-.474zM247.243 237.923c.218 0 .435-.092.598-.272l4.556-5.078c.318-.352.307-.914-.023-1.253-.331-.34-.855-.328-1.172.026l-4.558 5.076c-.317.354-.305.915.025 1.254.16.165.367.247.574.247M225.32 235.717c.013.232.113.459.293.62l5.036 4.529c.351.316.873.267 1.168-.108.295-.375.25-.934-.102-1.25l-5.036-4.528c-.35-.316-.873-.267-1.168.108-.143.183-.206.409-.192.629M201.324 260.63c.14 0 .284-.04.415-.12.396-.245.53-.787.302-1.211l-3.297-6.091c-.23-.424-.735-.568-1.132-.323-.397.245-.532.788-.303 1.212l3.297 6.09c.153.284.432.443.718.443M195.617 242.526c.301 0 .59-.175.738-.48l3.016-6.254c.21-.435.051-.97-.356-1.195-.406-.225-.907-.053-1.117.381l-3.017 6.254c-.21.436-.05.971.357 1.195.121.067.252.1.38.1M204.616 171.518c.3 0 .59-.175.738-.48l3.016-6.254c.21-.436.05-.97-.357-1.195-.405-.224-.906-.054-1.116.381l-3.017 6.254c-.21.436-.05.971.357 1.194.12.068.25.1.379.1M201.322 145.273c.052 0 .105-.005.158-.016.45-.093.744-.558.657-1.039l-1.248-6.909c-.086-.482-.522-.795-.971-.703-.45.093-.743.558-.657 1.04l1.248 6.908c.076.425.423.72.813.72M186.17 169.116c.052 0 .105-.005.158-.016.45-.093.744-.558.657-1.039l-1.248-6.909c-.086-.481-.522-.795-.97-.703-.45.094-.744.559-.658 1.039l1.248 6.909c.076.425.424.719.813.719M212.087 151.34c.052 0 .105-.005.158-.016.45-.092.743-.558.657-1.04l-1.248-6.908c-.087-.481-.522-.794-.97-.703-.45.093-.745.559-.658 1.039l1.248 6.909c.076.425.423.719.813.719M207.146 127.271c.161.04.317.026.46-.026.26-.097.47-.33.535-.634l1.394-6.345c-.645.37-1.299.743-1.949 1.117l-1.057 4.82c-.107.48.17.954.617 1.068M188.178 179.799c.274 0 .542-.146.7-.411l3.527-5.942c.244-.413.13-.961-.256-1.223-.388-.263-.9-.14-1.144.273l-3.526 5.94c-.247.415-.133.963.254 1.225.138.094.292.138.445.138M211.725 243.625c.227-.26.294-.65.143-.99l-2.833-6.35c-.198-.441-.692-.63-1.106-.418-.414.21-.589.74-.39 1.182l2.832 6.35c.198.443.693.63 1.106.419.096-.048.18-.115.248-.193" transform="translate(28 40)"/>
                        <path fill="#6020BD" d="M270.046 255.56l5.538.958c-.004-.594-.01-1.19-.017-1.799l-5.254-.914c-.453-.075-.88.251-.95.734-.074.484.23.941.683 1.02M271.731 239.334l3.688.638c-.008-.598-.012-1.196-.02-1.798l-3.4-.59c-.453-.08-.876.25-.95.734-.075.485.23.937.682 1.016" transform="translate(28 40)"/>
                        <path fill="#403657" d="M211.122 79.323s-5.774-6.364-3.595-13.766c2.18-7.402 8.14-7.321 8.14-7.321s3.478-7.874 9.401-8.133c5.924-.26 11.507-10.779 16.897-7.923 5.39 2.858-.584 9.091-.584 9.091s9.235-9.739 12.28-6.883c3.044 2.857-4.228 10.519-4.228 10.519s7.76-5.454 10.308-3.376-6.08 11.039-6.08 11.039 5.583 10.065-.037 14.578l-42.502 2.175z" transform="translate(28 40)"/>
                        <path fill="#F97853" d="M251.46 82.453s3.693-4.922 6.438-.852c2.746 4.07-1.135 16.093-7.857 13.159l1.42-12.307z" transform="translate(28 40)"/>
                        <path fill="#EA5143" d="M251.508 91.044c.248 0 .477-.164.547-.415 1.042-3.71 4.887-5.216 4.926-5.23.293-.113.44-.44.33-.733-.112-.293-.44-.44-.732-.33-.18.067-4.418 1.712-5.618 5.986-.085.303.093.616.394.701.05.014.103.021.154.021" transform="translate(28 40)"/>
                        <path fill="#EA5143" d="M255.39 89.175c.105 0 .212-.03.307-.091.263-.17.34-.521.17-.785-.029-.044-.708-1.082-2.132-1.718-.285-.13-.622 0-.75.286-.128.287 0 .622.286.75 1.1.493 1.636 1.289 1.64 1.297.11.169.292.26.48.26" transform="translate(28 40)"/>
                        <path fill="#F97853" d="M213.413 82.453s-3.692-4.922-6.437-.852c-2.746 4.07 1.136 16.093 7.857 13.159l-1.42-12.307z" transform="translate(28 40)"/>
                        <path fill="#EA5143" d="M213.365 91.044c-.248 0-.476-.164-.546-.415-1.042-3.71-4.888-5.216-4.926-5.23-.293-.113-.44-.44-.329-.733.111-.293.44-.44.731-.33.18.067 4.418 1.712 5.617 5.986.085.303-.09.616-.393.701-.05.014-.103.021-.154.021" transform="translate(28 40)"/>
                        <path fill="#EA5143" d="M209.484 89.175c-.105 0-.212-.03-.307-.091-.264-.17-.34-.521-.17-.785.028-.044.708-1.082 2.132-1.718.285-.13.622 0 .75.286.128.287 0 .622-.286.75-1.1.493-1.636 1.289-1.64 1.297-.11.169-.292.26-.479.26" transform="translate(28 40)"/>
                        <path fill="#FFA681" d="M223.349 104.957v11.956s3.566 6.089 8.387 6.503c4.818.42 9.099-5.242 9.099-5.242v-12.377l-17.486-.84z" transform="translate(28 40)"/>
                        <path fill="#F97853" d="M223.349 104.957v5.305c3.236 3.59 8.982 4.487 17.486 3.232v-7.697l-17.486-.84z" transform="translate(28 40)"/>
                        <path fill="#FFA681" d="M210.746 74.253c.219 4.646.66 10.458 1.549 15.1v.013c0 .013.004.027.009.045 0 .004.004.004.004.01.219 1.132.464 2.2.732 3.16.16.561.335 1.151.532 1.753 2.834 8.891 9.399 21.76 25.9 15.872 6.95-2.477 10.57-9.655 12.413-17.439.107-.464.21-.924.299-1.366.062-.294.12-.58.174-.86l.08-.416c.014-.072.023-.12.027-.152.005-.018.005-.027.005-.027 1.089-5.985 1.254-12.037 1.173-16.362-.084-4.41-2.495-8.445-6.333-10.619-10.395-5.896-21.371-3.695-28.597-.919-5.016 1.924-8.226 6.847-7.967 12.207" transform="translate(28 40)"/>
                        <path fill="#403657" d="M232.803 96.418c11.78-1.589 9.927 4.753 9.927 4.753-1.308 1.192-2.504 2.063-3.307 2.514-2.57 1.432-5.102 1.977-6.936 1.888-1.808-.076-2.303.294-6.874-2.178-.808-.434-1.624-1.076-2.424-1.839h-.004v-.005c-.196-1.24-2.192-7.164 9.618-5.133zm-20.513-7.065s0 .004.004.013c0 .013.005.027.01.045 0 .004.003.004.003.008.108.39.688 2.518 1.264 4.915 2.834 8.891 9.4 21.76 25.901 15.872 6.95-2.477 10.57-9.655 12.412-17.439.107-.464.21-.924.3-1.366.061-.294.12-.58.174-.86l.08-.416c.013-.072.022-.12.026-.152.005-.018.005-.027.005-.027l-2.428-.49c-.465 2.298-1.49 4.463-2.75 6.386-2.052-4.918-12.47-1.65-12.47-1.65l-.049.017c-.634.196-1.285.3-1.942.3-.673 0-1.343-.108-1.995-.318 0 0-10.292-3.41-12.426 1.281-2.133-3.303-3.58-6.298-3.58-6.298l-2.535.18h-.004zM222.13 82.9c0 1.275.659 2.31 1.47 2.31.81 0 1.469-1.035 1.469-2.31 0-1.277-.658-2.312-1.47-2.312-.81 0-1.468 1.035-1.468 2.311M240.496 82.9c0 1.275.658 2.31 1.47 2.31.81 0 1.468-1.035 1.468-2.31 0-1.277-.657-2.312-1.468-2.312-.812 0-1.47 1.035-1.47 2.311M218.369 75.107s6.07-2.399 10.745-.38l-.467 2.6s-6.861-.58-10.318.821c-.31-1-.355-2.013.04-3.04M247.234 75.119s-6.115-2.417-10.824-.383l.47 2.619s6.912-.584 10.394.827c.313-1.008.358-2.027-.04-3.063" transform="translate(28 40)"/>
                        <path fill="#F97853" d="M232.24 93.227c-.958 0-1.908-.373-2.056-.433-.29-.119-.429-.45-.31-.74.117-.29.45-.43.739-.312.514.21 1.745.535 2.278.215.104-.06.245-.183.28-.528.206-1.984-.338-8.632-.343-8.699-.026-.313.207-.587.519-.613.314-.026.587.207.613.52.022.277.557 6.821.341 8.91-.082.784-.494 1.187-.826 1.386-.364.217-.8.294-1.235.294" transform="translate(28 40)"/>
                        <path fill="#FFF" d="M239.481 97.553c-.432 2.17-1.865 6.162-6.693 6.162-4.84 0-6.197-3.648-6.663-6.162h13.356z" transform="translate(28 40)"/>
                        <path fill="#403657" d="M210.744 75.251c.222 4.646.665 10.457 1.55 15.103l2.539-.18s-.615-3.923-.9-6.479c-.283-2.556-.765-7.333 1.416-7.93 2.175-.59.899-6.04 3.926-8.404 3.028-2.368 9.799-3.017 14.264-.269 4.464 2.744 9.495-.208 11.552.27 2.06.471 4.855 3.311 4.1 5.963-.761 2.647 1.51 4.26 2.062 7.004.55 2.743-1.21 10.127-1.21 10.127l2.426.49c1.09-5.988 1.254-12.037 1.175-16.36-.085-4.413-2.494-8.446-6.333-10.62-10.4-5.897-21.373-3.698-28.598-.92-5.015 1.925-8.225 6.85-7.97 12.205" transform="translate(28 40)"/>
                        <path fill="#F5A623" d="M315.263 202.19c-1.544 14.081-10.738 45.541-17.104 51.704-8.288 8.023-35.563 24.913-49.77 33.573-2.564 1.563 9.476 11.966 9.476 11.966s37.721-16.13 52.127-28.848c4.076-3.598 12.35-14.946 21.692-36.56 2.832-6.555 9.695-19.773 9.34-28.39-.41-9.919-16.168-8.286-25.76-3.446" transform="translate(28 40)"/>
                        <path fill="#FFA681" d="M285.829 283.08s-10.26 3.897-13.896 8.184c-3.636 4.285-8.441 7.92-7.272 9.609 1.169 1.688 6.493-3.246 6.493-3.246s1.459 5.425 6.623 6.01 14.935-9.517 14.935-9.517l-6.883-11.04z" transform="translate(28 40)"/>
                        <path fill="url(#k2km6wiubq)" d="M387.102 241.508c.003.892-.005 1.945-.02 3.14-.016 1.19-.042 2.517-.079 3.969-.028.995-.059 2.047-.095 3.15-.035.93-.07 1.894-.11 2.894-.044 1.02-.09 2.074-.142 3.159-.714 14.748-2.442 35.11-6.24 51.435h-79.819c2.662-11.864 6.735-30.578 9.966-54.858.136-1.021.27-2.052.403-3.094.132-1.042.262-2.094.392-3.153.07-.564.138-1.132.205-1.702.055-.47.11-.937.161-1.4.15-1.31.283-2.597.403-3.86.101-1.054.195-2.09.284-3.114 1.368-16.324.884-28.557 2.851-35.884 2.291-8.531 29.002-18.31 29.002-18.31l16.734.876s15.957 5.21 24.486 12.698c8.533 7.49 1.397 29.84 1.605 42.533.008.436.011.945.013 1.52" transform="translate(28 40)"/>
                        <path fill="#F2F1F4" d="M387.082 244.648c-7.257.88-14.828 1.23-22.257 1.23-24.33 0-47.168-3.72-52.697-4.69.1-1.055.194-2.09.283-3.114 6.426 1.137 43.61 7.288 74.692 3.433.002.892-.005 1.946-.021 3.141M387.004 248.617c-.028.995-.06 2.047-.096 3.15-7.205.866-14.714 1.205-22.083 1.205-25.703 0-49.742-4.15-53.467-4.823.07-.563.138-1.132.206-1.701.054-.47.109-.937.16-1.4 3.7.675 42.8 7.574 75.28 3.569M386.799 254.66c-.044 1.022-.091 2.074-.143 3.159-7.496.953-15.344 1.325-23.041 1.325-24.885 0-48.207-3.888-53.051-4.748.135-1.02.27-2.051.403-3.093 5.76 1.026 44.173 7.5 75.832 3.358" transform="translate(28 40)"/>
                        <path fill="#403657" d="M330.875 145.205c0 13.005 10.542 23.547 23.547 23.547 13.004 0 23.547-10.542 23.547-23.547 0-13.004-10.543-23.546-23.547-23.546-13.005 0-23.547 10.542-23.547 23.546" transform="translate(28 40)"/>
                        <path fill="#403657" d="M331.26 140.983s-6.668-1.84-5.79-8.313c.75-5.508 7.22-1.937 6.65-6.242-.569-4.305-1.832-8.218 3.738-9.295 4.87-.942 4.952 2.397 11.349-2.446 7.557-5.722 13.361 7.527 20.106 7.925 9.947.587 11.204 6.213 12.182 10.714.978 4.501-2.85 7.657-2.85 7.657H331.26z" transform="translate(28 40)"/>
                        <path fill="#F97853" d="M334.83 151.794s-3.728-4.973-6.502-.86c-2.773 4.112 1.148 16.257 7.938 13.293l-1.435-12.433z" transform="translate(28 40)"/>
                        <path fill="#EA5143" d="M334.783 160.473c-.251 0-.481-.166-.553-.419-1.052-3.75-4.936-5.27-4.976-5.285-.295-.113-.445-.444-.332-.74.112-.296.443-.445.739-.333.182.068 4.463 1.73 5.675 6.048.085.305-.093.622-.4.708-.05.014-.102.021-.153.021" transform="translate(28 40)"/>
                        <path fill="#EA5143" d="M330.861 158.585c-.106 0-.214-.03-.31-.092-.267-.172-.343-.526-.172-.793.03-.044.716-1.093 2.154-1.736.288-.13.63 0 .758.289.13.29 0 .629-.289.759-1.113.497-1.653 1.302-1.658 1.309-.11.17-.295.264-.483.264" transform="translate(28 40)"/>
                        <path fill="#FFA681" d="M361.882 174.53v12.077s-4.966 5.323-9.837 5.742c-4.865.425-7.827-5.356-7.827-5.356v-11.615l17.664-.849z" transform="translate(28 40)"/>
                        <path fill="#F97853" d="M361.882 174.53v5.358c-3.269 3.627-9.072 4.534-17.663 3.265v-7.775l17.663-.849z" transform="translate(28 40)"/>
                        <path fill="#FFA681" d="M374.618 143.508c-.225 4.694-.672 10.564-1.567 15.257-.224 1.171-.476 2.274-.757 3.26-2.542 8.9-8.901 24.163-26.7 17.806-7.862-2.806-11.505-11.563-13.13-20.468-1.101-6.049-1.267-12.16-1.187-16.526.086-4.459 2.52-8.533 6.399-10.73 10.505-5.956 21.592-3.736 28.89-.93 5.068 1.945 8.31 6.92 8.052 12.331" transform="translate(28 40)"/>
                        <path fill="#403657" d="M354.303 152.04c0-.811.658-1.466 1.464-1.466h8.81c.81 0 1.466.655 1.466 1.466v1.126c0 1.628-.635 3.184-1.743 4.26-1.105 1.075-2.356 1.633-3.718 1.664h-.21c-1.608 0-3.122-.624-4.269-1.764-1.16-1.153-1.8-2.691-1.8-4.334v-.952zm-1.04 0v.952c0 1.92.749 3.72 2.11 5.072 1.34 1.333 3.115 2.065 4.999 2.065h.232c1.636-.035 3.122-.693 4.423-1.957 1.307-1.276 2.055-3.098 2.055-5.006v-1.126c0-.312-.058-.61-.166-.887-.125-.336-.32-.634-.568-.884-.454-.454-1.077-.734-1.772-.734h-8.809c-.996 0-1.856.582-2.257 1.427-.15.308-.236.65-.243 1.012-.003.02-.003.045-.003.066zM336.663 152.04c0-.811.658-1.466 1.465-1.466h8.813c.807 0 1.465.655 1.465 1.466v1.126c0 1.628-.638 3.184-1.742 4.26-1.105 1.075-2.355 1.633-3.718 1.664h-.214c-1.607 0-3.122-.624-4.264-1.764-1.164-1.153-1.805-2.691-1.805-4.334v-.952zm-1.04 0v.952c0 1.92.752 3.72 2.11 5.072 1.34 1.333 3.115 2.065 4.999 2.065h.236c1.632-.035 3.12-.693 4.42-1.957 1.306-1.276 2.057-3.098 2.057-5.006v-1.126c0-.018 0-.031-.003-.05-.004-.34-.08-.664-.212-.96-.387-.882-1.267-1.495-2.29-1.495h-8.812c-.773 0-1.465.354-1.926.904-.222.27-.392.585-.481.929-.067.214-.098.44-.098.672z" transform="translate(28 40)"/>
                        <path fill="#403657" d="M373.361 149.114c-2.992-.129-5.13.734-5.975 1.155-.235.115-.865.525-.892.541l.494.882c.008-.003.696-.415.967-.54.83-.387 2.67-1.162 5.406-1v-1.038zM353.96 152.079l.343-.982c-.062-.022-1.521-.523-3.123-.523-1.706 0-2.805.524-2.851.546l.454.935c.008-.003.945-.442 2.397-.442 1.422 0 2.767.46 2.78.466M331.984 149.365v1.042c2.152.178 4.141 1.139 4.17 1.151l.456-.932c-.117-.059-2.252-1.088-4.626-1.261M343.778 153.37c0 1.29-.664 2.335-1.483 2.335-.821 0-1.485-1.045-1.485-2.334 0-1.29.664-2.335 1.485-2.335.819 0 1.483 1.045 1.483 2.335M361.159 153.37c0 1.29-.664 2.335-1.484 2.335s-1.484-1.045-1.484-2.334c0-1.29.664-2.335 1.484-2.335s1.484 1.045 1.484 2.335M337.466 146.202s6.18-2.442 10.936-.387l-.397 2.209s-5.152-1.151-10.197.73c-.315-1.017-.743-1.506-.341-2.552M365.739 146.202s-6.179-2.442-10.936-.387l.397 2.209s5.152-1.151 10.197.73c.316-1.017.743-1.506.342-2.552" transform="translate(28 40)"/>
                        <path fill="#F97853" d="M351.895 163.155c.97 0 1.93-.377 2.077-.437.293-.12.434-.456.315-.749-.12-.293-.455-.434-.748-.314-.519.21-1.762.54-2.302.217-.104-.063-.246-.186-.282-.534-.207-2.004.341-8.72.346-8.788.027-.316-.209-.593-.524-.619-.318-.027-.593.21-.619.525-.023.28-.563 6.891-.345 9 .083.794.5 1.2.835 1.401.367.22.81.298 1.247.298" transform="translate(28 40)"/>
                        <path fill="#FFF" d="M344.783 166.068c.469 2.36 2.027 6.7 7.278 6.7 5.264 0 6.74-3.967 7.247-6.7h-14.525z" transform="translate(28 40)"/>
                        <path fill="#F97853" d="M351.99 175.764c1.485 0 2.744-.752 2.798-.784.27-.163.357-.516.193-.787-.164-.273-.516-.36-.788-.196-.01.006-1.046.62-2.203.62-1.062 0-2.078-.61-2.088-.617-.269-.166-.623-.083-.789.189-.167.268-.084.621.187.788.051.032 1.289.787 2.69.787" transform="translate(28 40)"/>
                        <path fill="#403657" d="M334.24 155.622c-.433-2.366-.861-5.42-.55-6.986.559-2.77 2.854-4.4 2.089-7.071-.766-2.682 2.059-5.552 4.14-6.03 2.077-.481 6.936.554 11.718-1.717 4.565-2.17 12.5-.617 13.794 2.312 1.565 3.547-.564 3.883 3.706 7.718 1.7 1.529-.317 5.5-.606 8.083-.13 1.187-.148 1.767-.101 3.044l.017.647h5.11c.565-4.005.887-8.421 1.063-12.115.259-5.412-2.988-10.383-8.053-12.33-7.301-2.805-18.383-5.03-28.894.93-3.876 2.2-6.312 6.27-6.394 10.729-.065 3.463.026 8.026.618 12.786h2.344z" transform="translate(28 40)"/>
                        <path fill="#FFA681" d="M371.293 157.83c-.016-1.336.079-2.674.312-3.99.32-1.8.842-3.433 2.684-4.184 1.483-.603 3.065-.615 4.19 1.055 2.775 4.113-.314 16.909-7.104 13.945l-.082-6.826z" transform="translate(28 40)"/>
                        <path fill="#F97853" d="M372.687 160.929c.246-.05.44-.257.46-.52.298-3.882 3.81-6.133 3.845-6.156.267-.17.35-.522.181-.791-.168-.267-.522-.35-.79-.181-.165.101-4.038 2.57-4.382 7.041-.023.315.213.59.53.615.053.005.105.001.156-.008" transform="translate(28 40)"/>
                        <path fill="#F97853" d="M376.163 158.308c.104-.02.204-.07.286-.15.228-.22.234-.584.014-.812-.037-.037-.916-.932-2.452-1.28-.308-.07-.617.123-.687.431-.07.31.123.617.432.687 1.188.27 1.876.954 1.882.961.14.145.34.2.525.163" transform="translate(28 40)"/>
                        <path fill="#F5A623" d="M382.091 194.834c-8.387 12.71-40.481 56.657-47.725 61.763-9.425 6.645-35.125 16.095-49.88 25.948-5.012 3.348 6.832 12.82 6.832 12.82s35.965-10.11 52.163-20.451c4.582-2.925 23.64-22.016 35.791-38.95 4.163-5.8 10.933-13.857 11.913-22.426 1.128-9.862-1.97-15.14-9.094-18.704" transform="translate(28 40)"/>
                        <path fill="#F66E1E" d="M318.477 309.255h-99.983c-1.278 0-2.314-1.035-2.314-2.313v-7.967c0-1.278 1.036-2.314 2.314-2.314h99.983c1.278 0 2.313 1.036 2.313 2.314v7.967c0 1.278-1.035 2.313-2.313 2.313" transform="translate(28 40)"/>
                        <path fill="#FAE390" d="M216.202 309.255l-19.664-73.64c-1.104-4.134 2.013-8.194 6.294-8.194H246.1c2.92 0 5.482 1.942 6.271 4.753l21.653 77.08h-57.822z" transform="translate(28 40)"/>
                        <path fill="#F66E1E" d="M252.375 232.175l21.473 76.446h4.943l-21.472-76.446c-.795-2.812-3.353-4.756-6.273-4.756H246.1c2.92 0 5.479 1.944 6.274 4.756" transform="translate(28 40)"/>
                        <path fill="url(#soa3yftq4r)" d="M241.25 271.635c1.125 4.857-1.901 8.795-6.76 8.795-4.856 0-9.705-3.938-10.828-8.795-1.124-4.856 1.902-8.794 6.759-8.794s9.706 3.938 10.83 8.794" transform="translate(28 40)"/>
                        <path fill="url(#yhic353qhs)" d="M375.328 26.895c-2.5 0-4.532 2.033-4.532 4.532 0 2.5 2.033 4.531 4.532 4.531 2.498 0 4.53-2.032 4.53-4.53 0-2.5-2.032-4.533-4.53-4.533m0 11.135c-3.642 0-6.604-2.962-6.604-6.603 0-3.64 2.962-6.603 6.604-6.603 3.64 0 6.603 2.962 6.603 6.603 0 3.641-2.962 6.603-6.603 6.603" transform="translate(28 40)"/>
                        <path fill="url(#b893lgj0at)" d="M399.1 50.062c-2.5 0-4.533 2.033-4.533 4.532 0 2.498 2.033 4.53 4.532 4.53 2.498 0 4.531-2.032 4.531-4.53 0-2.5-2.033-4.532-4.53-4.532m0 11.135c-3.643 0-6.605-2.962-6.605-6.603 0-3.641 2.962-6.604 6.604-6.604 3.641 0 6.603 2.963 6.603 6.604 0 3.64-2.962 6.603-6.603 6.603" transform="translate(28 40)"/>
                        <path fill="url(#l1qog5eg5u)" d="M407.257 82.655c-.572 0-1.036-.464-1.036-1.036V77.05c0-.572.464-1.036 1.036-1.036.572 0 1.036.464 1.036 1.036v4.568c0 .572-.464 1.036-1.036 1.036" transform="translate(28 40)"/>
                        <path fill="url(#9jphxeuvyv)" d="M407.257 90.648c-.572 0-1.036-.464-1.036-1.036v-4.568c0-.572.464-1.035 1.036-1.035.572 0 1.036.463 1.036 1.035v4.568c0 .572-.464 1.036-1.036 1.036" transform="translate(28 40)"/>
                        <path fill="url(#fno7hawe5w)" d="M413.67 84.368h-4.104c-.572 0-1.036-.465-1.036-1.036 0-.572.464-1.036 1.036-1.036h4.104c.57 0 1.035.463 1.035 1.035 0 .572-.464 1.037-1.035 1.037M404.949 84.368h-4.104c-.571 0-1.035-.465-1.035-1.036 0-.572.464-1.036 1.035-1.036h4.104c.572 0 1.036.463 1.036 1.035 0 .572-.464 1.037-1.036 1.037" transform="translate(28 40)"/>
                        <path fill="url(#l1qog5eg5u)" d="M370.796 57.059c-.572 0-1.036-.463-1.036-1.036v-4.568c0-.572.464-1.036 1.036-1.036.572 0 1.036.464 1.036 1.036v4.568c0 .573-.464 1.036-1.036 1.036" transform="translate(28 40)"/>
                        <path fill="url(#6goepo4jix)" d="M377.208 58.772h-4.104c-.572 0-1.036-.463-1.036-1.036 0-.572.464-1.035 1.036-1.035h4.104c.57 0 1.035.463 1.035 1.035 0 .573-.464 1.036-1.035 1.036M368.487 58.772h-4.103c-.572 0-1.036-.463-1.036-1.036 0-.572.464-1.035 1.036-1.035h4.103c.572 0 1.036.463 1.036 1.035 0 .573-.464 1.036-1.036 1.036" transform="translate(28 40)"/>
                        <path fill="url(#0bof4d6k6y)" d="M70.948 7.713c0 2.5 2.034 4.532 4.533 4.532 2.499 0 4.53-2.033 4.53-4.532s-2.031-4.532-4.53-4.532c-2.5 0-4.532 2.033-4.532 4.532m-2.072 0c0-3.64 2.963-6.604 6.604-6.604 3.64 0 6.603 2.963 6.603 6.604s-2.963 6.604-6.603 6.604c-3.641 0-6.603-2.963-6.603-6.604" transform="translate(28 40)"/>
                        <path fill="url(#x6yg9727xz)" d="M44.43 32.883c0 2.499 2.033 4.532 4.532 4.532 2.498 0 4.531-2.033 4.531-4.532 0-2.5-2.033-4.532-4.53-4.532-2.5 0-4.533 2.033-4.533 4.532m-2.072 0c0-3.641 2.963-6.604 6.604-6.604 3.64 0 6.603 2.963 6.603 6.604 0 3.64-2.963 6.604-6.603 6.604-3.64 0-6.604-2.963-6.604-6.604" transform="translate(28 40)"/>
                        <path fill="url(#l1qog5eg5u)" d="M28.63 42.15c.572 0 1.036-.465 1.036-1.037v-4.568c0-.572-.464-1.036-1.036-1.036-.572 0-1.036.464-1.036 1.036v4.568c0 .572.464 1.036 1.036 1.036M28.63 50.143c.572 0 1.036-.464 1.036-1.036v-4.568c0-.572-.464-1.036-1.036-1.036-.572 0-1.036.464-1.036 1.036v4.568c0 .572.464 1.036 1.036 1.036" transform="translate(28 40)"/>
                        <path fill="url(#fno7hawe5w)" d="M22.218 43.862h4.105c.57 0 1.035-.464 1.035-1.036 0-.572-.465-1.036-1.035-1.036h-4.105c-.572 0-1.035.464-1.035 1.036 0 .572.463 1.036 1.035 1.036M30.938 43.862h4.104c.571 0 1.035-.464 1.035-1.036 0-.572-.464-1.036-1.035-1.036h-4.104c-.572 0-1.036.464-1.036 1.036 0 .572.464 1.036 1.036 1.036" transform="translate(28 40)"/>
                        <g transform="translate(28 40) translate(10)">
                            <mask id="es0imppmhB" fill="#fff">
                                <use xlink:href="#de37tltbkA"/>
                            </mask>
                            <path fill="url(#l1qog5eg5u)" d="M42.497 7.036c.572 0 1.036-.464 1.036-1.036V1.432c0-.572-.464-1.036-1.036-1.036-.572 0-1.036.464-1.036 1.036V6c0 .572.464 1.036 1.036 1.036" mask="url(#es0imppmhB)"/>
                        </g>
                        <path fill="url(#9jphxeuvyv)" d="M52.497 15.03c.572 0 1.036-.463 1.036-1.036V9.426c0-.571-.464-1.035-1.036-1.035-.572 0-1.036.464-1.036 1.035v4.568c0 .573.464 1.036 1.036 1.036" transform="translate(28 40)"/>
                        <path fill="url(#6goepo4jix)" d="M46.086 8.749h4.104c.57 0 1.035-.463 1.035-1.036 0-.572-.464-1.035-1.035-1.035h-4.104c-.572 0-1.036.463-1.036 1.035 0 .573.464 1.036 1.036 1.036M54.806 8.749h4.103c.572 0 1.036-.463 1.036-1.036 0-.572-.464-1.035-1.036-1.035h-4.103c-.572 0-1.036.463-1.036 1.035 0 .573.464 1.036 1.036 1.036" transform="translate(28 40)"/>
                        <path fill="url(#r44qfjzwpC)" d="M323.611 14.723V34.83c0 2.658-2.157 4.815-4.814 4.815h-36.509L271.265 43.6c-1.132.407-2.215-.706-1.78-1.825l4.17-10.767V14.723c0-2.658 2.155-4.814 4.815-4.814h40.327c2.657 0 4.814 2.156 4.814 4.814" transform="translate(28 40)"/>
                        <g>
                            <path fill="url(#fubz8owpxD)" d="M34.914 3.412H1.42c-.734 0-1.328-.595-1.328-1.329S.687.755 1.42.755h33.493c.734 0 1.329.594 1.329 1.328 0 .734-.595 1.33-1.33 1.33M34.914 8.762H1.42c-.734 0-1.328-.595-1.328-1.329 0-.732.594-1.327 1.328-1.327h33.493c.734 0 1.329.595 1.329 1.328 0 .734-.595 1.328-1.33 1.328M34.914 14.113H1.42c-.734 0-1.328-.595-1.328-1.328 0-.734.594-1.33 1.328-1.33h33.493c.734 0 1.329.596 1.329 1.33 0 .733-.595 1.328-1.33 1.328" transform="translate(28 40) translate(281 17)"/>
                        </g>
                        <path fill="url(#kislxypj2E)" d="M431.303 316.775v.36H26.853v-.36c0-4.145 3.358-7.507 7.506-7.507h389.434c4.149 0 7.51 3.362 7.51 7.507" transform="translate(28 40)"/>
                    </g>
                </g>
            </g>
        </g>
    </g>
</svg>
