<?xml version="1.0" encoding="utf-8"?>
<!-- Generator: Adobe Illustrator 25.2.2, SVG Export Plug-In . SVG Version: 6.00 Build 0)  -->
<svg version="1.1" id="Layer_1" xmlns:v="https://vecta.io/nano"
	 xmlns="http://www.w3.org/2000/svg" xmlns:xlink="http://www.w3.org/1999/xlink" x="0px" y="0px" viewBox="0 0 111 104"
	 style="enable-background:new 0 0 111 104;" xml:space="preserve">
<style type="text/css">
	.st0{opacity:0.37;enable-background:new    ;}
	.st1{fill:url(#SVGID_1_);}
	.st2{fill:url(#SVGID_2_);}
	.st3{fill:url(#SVGID_3_);}
	.st4{fill:url(#SVGID_4_);}
	.st5{fill:url(#SVGID_5_);}
	.st6{fill:url(#SVGID_6_);}
	.st7{fill:url(#SVGID_7_);}
	.st8{fill:url(#SVGID_8_);}
	.st9{fill:url(#SVGID_9_);}
	.st10{fill:url(#SVGID_10_);}
	.st11{fill:url(#SVGID_11_);}
	.st12{fill:url(#SVGID_12_);}
	.st13{fill:url(#SVGID_13_);}
	.st14{fill:url(#SVGID_14_);}
	.st15{fill:url(#SVGID_15_);}
	.st16{fill:url(#SVGID_16_);}
	.st17{fill:url(#SVGID_17_);}
	.st18{fill:url(#SVGID_18_);}
	.st19{fill:url(#SVGID_19_);}
	.st20{fill:url(#SVGID_20_);}
	.st21{fill:url(#SVGID_21_);}
	.st22{fill:url(#SVGID_22_);}
	.st23{fill:url(#SVGID_23_);}
	.st24{fill:url(#SVGID_24_);}
	.st25{fill:url(#SVGID_25_);}
</style>
<g class="st0">
	<linearGradient id="SVGID_1_" gradientUnits="userSpaceOnUse" x1="1.9829" y1="11.9458" x2="19.9739" y2="7.3416">
		<stop  offset="0" style="stop-color:#4AF4FF"/>
		<stop  offset="0" style="stop-color:#39DF9E"/>
		<stop  offset="1" style="stop-color:#00747B"/>
	</linearGradient>
	<polygon class="st1" points="8.1,7.5 12.5,7.5 3.2,16.8 8.4,16.8 15.5,9.7 15.5,13.9 19.1,13.9 19.1,3.9 8.1,3.9 	"/>
	<linearGradient id="SVGID_2_" gradientUnits="userSpaceOnUse" x1="24.1548" y1="11.9458" x2="42.1458" y2="7.3416">
		<stop  offset="0" style="stop-color:#4AF4FF"/>
		<stop  offset="0" style="stop-color:#39DF9E"/>
		<stop  offset="1" style="stop-color:#00747B"/>
	</linearGradient>
	<polygon class="st2" points="30.3,7.5 34.6,7.5 25.4,16.8 30.6,16.8 37.6,9.7 37.7,13.9 41.3,13.9 41.3,3.9 30.3,3.9 	"/>
	<linearGradient id="SVGID_3_" gradientUnits="userSpaceOnUse" x1="46.3267" y1="11.9458" x2="64.3177" y2="7.3416">
		<stop  offset="0" style="stop-color:#4AF4FF"/>
		<stop  offset="0" style="stop-color:#39DF9E"/>
		<stop  offset="1" style="stop-color:#00747B"/>
	</linearGradient>
	<polygon class="st3" points="52.5,7.5 56.8,7.5 47.6,16.8 52.7,16.8 59.8,9.7 59.9,13.9 63.4,13.9 63.4,3.9 52.5,3.9 	"/>
	<linearGradient id="SVGID_4_" gradientUnits="userSpaceOnUse" x1="68.4986" y1="11.9458" x2="86.4896" y2="7.3416">
		<stop  offset="0" style="stop-color:#4AF4FF"/>
		<stop  offset="0" style="stop-color:#39DF9E"/>
		<stop  offset="1" style="stop-color:#00747B"/>
	</linearGradient>
	<polygon class="st4" points="74.7,7.5 79,7.5 69.7,16.8 74.9,16.8 82,9.7 82,13.9 85.6,13.9 85.6,3.9 74.7,3.9 	"/>
	<linearGradient id="SVGID_5_" gradientUnits="userSpaceOnUse" x1="90.6705" y1="11.9458" x2="108.6615" y2="7.3416">
		<stop  offset="0" style="stop-color:#4AF4FF"/>
		<stop  offset="0" style="stop-color:#39DF9E"/>
		<stop  offset="1" style="stop-color:#00747B"/>
	</linearGradient>
	<polygon class="st5" points="96.8,3.9 96.8,7.5 101.2,7.5 91.9,16.8 97.1,16.8 104.1,9.7 104.2,13.9 107.8,13.9 107.8,3.9 	"/>
	<linearGradient id="SVGID_6_" gradientUnits="userSpaceOnUse" x1="1.9829" y1="32.7765" x2="19.9739" y2="28.1723">
		<stop  offset="0" style="stop-color:#4AF4FF"/>
		<stop  offset="0" style="stop-color:#39DF9E"/>
		<stop  offset="1" style="stop-color:#00747B"/>
	</linearGradient>
	<polygon class="st6" points="8.1,28.3 12.5,28.3 3.2,37.6 8.4,37.6 15.5,30.5 15.5,34.7 19.1,34.7 19.1,24.8 8.1,24.8 	"/>
	<linearGradient id="SVGID_7_" gradientUnits="userSpaceOnUse" x1="24.1548" y1="32.7765" x2="42.1458" y2="28.1723">
		<stop  offset="0" style="stop-color:#4AF4FF"/>
		<stop  offset="0" style="stop-color:#39DF9E"/>
		<stop  offset="1" style="stop-color:#00747B"/>
	</linearGradient>
	<polygon class="st7" points="30.3,28.3 34.6,28.3 25.4,37.6 30.6,37.6 37.6,30.5 37.7,34.7 41.3,34.7 41.3,24.8 30.3,24.8 	"/>
	<linearGradient id="SVGID_8_" gradientUnits="userSpaceOnUse" x1="46.3267" y1="32.7765" x2="64.3177" y2="28.1723">
		<stop  offset="0" style="stop-color:#4AF4FF"/>
		<stop  offset="0" style="stop-color:#39DF9E"/>
		<stop  offset="1" style="stop-color:#00747B"/>
	</linearGradient>
	<polygon class="st8" points="52.5,28.3 56.8,28.3 47.6,37.6 52.7,37.6 59.8,30.5 59.9,34.7 63.4,34.7 63.4,24.8 52.5,24.8 	"/>
	<linearGradient id="SVGID_9_" gradientUnits="userSpaceOnUse" x1="68.4986" y1="32.7765" x2="86.4896" y2="28.1723">
		<stop  offset="0" style="stop-color:#4AF4FF"/>
		<stop  offset="0" style="stop-color:#39DF9E"/>
		<stop  offset="1" style="stop-color:#00747B"/>
	</linearGradient>
	<polygon class="st9" points="74.7,28.3 79,28.3 69.7,37.6 74.9,37.6 82,30.5 82,34.7 85.6,34.7 85.6,24.8 74.7,24.8 	"/>
	<linearGradient id="SVGID_10_" gradientUnits="userSpaceOnUse" x1="90.6705" y1="32.7765" x2="108.6615" y2="28.1723">
		<stop  offset="0" style="stop-color:#4AF4FF"/>
		<stop  offset="0" style="stop-color:#39DF9E"/>
		<stop  offset="1" style="stop-color:#00747B"/>
	</linearGradient>
	<polygon class="st10" points="96.8,28.3 101.2,28.3 91.9,37.6 97.1,37.6 104.1,30.5 104.2,34.7 107.8,34.7 107.8,24.8 96.8,24.8 	
		"/>
	<linearGradient id="SVGID_11_" gradientUnits="userSpaceOnUse" x1="1.9829" y1="53.6073" x2="19.9739" y2="49.0031">
		<stop  offset="0" style="stop-color:#4AF4FF"/>
		<stop  offset="0" style="stop-color:#39DF9E"/>
		<stop  offset="1" style="stop-color:#00747B"/>
	</linearGradient>
	<polygon class="st11" points="8.1,49.2 12.5,49.2 3.2,58.4 8.4,58.4 15.5,51.3 15.5,55.5 19.1,55.5 19.1,45.6 8.1,45.6 	"/>
	<linearGradient id="SVGID_12_" gradientUnits="userSpaceOnUse" x1="24.1548" y1="53.6073" x2="42.1458" y2="49.0031">
		<stop  offset="0" style="stop-color:#4AF4FF"/>
		<stop  offset="0" style="stop-color:#39DF9E"/>
		<stop  offset="1" style="stop-color:#00747B"/>
	</linearGradient>
	<polygon class="st12" points="30.3,49.2 34.6,49.2 25.4,58.4 30.6,58.4 37.6,51.3 37.7,55.5 41.3,55.5 41.3,45.6 30.3,45.6 	"/>
	<linearGradient id="SVGID_13_" gradientUnits="userSpaceOnUse" x1="46.3267" y1="53.6073" x2="64.3177" y2="49.0031">
		<stop  offset="0" style="stop-color:#4AF4FF"/>
		<stop  offset="0" style="stop-color:#39DF9E"/>
		<stop  offset="1" style="stop-color:#00747B"/>
	</linearGradient>
	<polygon class="st13" points="52.5,49.2 56.8,49.2 47.6,58.4 52.7,58.4 59.8,51.3 59.9,55.5 63.4,55.5 63.4,45.6 52.5,45.6 	"/>
	<linearGradient id="SVGID_14_" gradientUnits="userSpaceOnUse" x1="68.4986" y1="53.6073" x2="86.4896" y2="49.0031">
		<stop  offset="0" style="stop-color:#4AF4FF"/>
		<stop  offset="0" style="stop-color:#39DF9E"/>
		<stop  offset="1" style="stop-color:#00747B"/>
	</linearGradient>
	<polygon class="st14" points="74.7,49.2 79,49.2 69.7,58.4 74.9,58.4 82,51.3 82,55.5 85.6,55.5 85.6,45.6 74.7,45.6 	"/>
	<linearGradient id="SVGID_15_" gradientUnits="userSpaceOnUse" x1="90.6705" y1="53.6073" x2="108.6615" y2="49.0031">
		<stop  offset="0" style="stop-color:#4AF4FF"/>
		<stop  offset="0" style="stop-color:#39DF9E"/>
		<stop  offset="1" style="stop-color:#00747B"/>
	</linearGradient>
	<polygon class="st15" points="96.8,49.2 101.2,49.2 91.9,58.4 97.1,58.4 104.1,51.3 104.2,55.5 107.8,55.5 107.8,45.6 96.8,45.6 	
		"/>
	<linearGradient id="SVGID_16_" gradientUnits="userSpaceOnUse" x1="1.9829" y1="74.4381" x2="19.9739" y2="69.8339">
		<stop  offset="0" style="stop-color:#4AF4FF"/>
		<stop  offset="0" style="stop-color:#39DF9E"/>
		<stop  offset="1" style="stop-color:#00747B"/>
	</linearGradient>
	<polygon class="st16" points="8.1,70 12.5,70 3.2,79.2 8.4,79.2 15.5,72.2 15.5,76.4 19.1,76.4 19.1,66.4 8.1,66.4 	"/>
	<linearGradient id="SVGID_17_" gradientUnits="userSpaceOnUse" x1="24.1548" y1="74.4381" x2="42.1458" y2="69.8339">
		<stop  offset="0" style="stop-color:#4AF4FF"/>
		<stop  offset="0" style="stop-color:#39DF9E"/>
		<stop  offset="1" style="stop-color:#00747B"/>
	</linearGradient>
	<polygon class="st17" points="30.3,70 34.6,70 25.4,79.2 30.6,79.2 37.6,72.2 37.7,76.4 41.3,76.4 41.3,66.4 30.3,66.4 	"/>
	<linearGradient id="SVGID_18_" gradientUnits="userSpaceOnUse" x1="46.3267" y1="74.4381" x2="64.3177" y2="69.8339">
		<stop  offset="0" style="stop-color:#4AF4FF"/>
		<stop  offset="0" style="stop-color:#39DF9E"/>
		<stop  offset="1" style="stop-color:#00747B"/>
	</linearGradient>
	<polygon class="st18" points="52.5,70 56.8,70 47.6,79.2 52.7,79.2 59.8,72.2 59.9,76.4 63.4,76.4 63.4,66.4 52.5,66.4 	"/>
	<linearGradient id="SVGID_19_" gradientUnits="userSpaceOnUse" x1="68.4986" y1="74.4381" x2="86.4896" y2="69.8339">
		<stop  offset="0" style="stop-color:#4AF4FF"/>
		<stop  offset="0" style="stop-color:#39DF9E"/>
		<stop  offset="1" style="stop-color:#00747B"/>
	</linearGradient>
	<polygon class="st19" points="74.7,70 79,70 69.7,79.2 74.9,79.2 82,72.2 82,76.4 85.6,76.4 85.6,66.4 74.7,66.4 	"/>
	<linearGradient id="SVGID_20_" gradientUnits="userSpaceOnUse" x1="90.6705" y1="74.4381" x2="108.6615" y2="69.8339">
		<stop  offset="0" style="stop-color:#4AF4FF"/>
		<stop  offset="0" style="stop-color:#39DF9E"/>
		<stop  offset="1" style="stop-color:#00747B"/>
	</linearGradient>
	<polygon class="st20" points="96.8,70 101.2,70 91.9,79.2 97.1,79.2 104.1,72.2 104.2,76.4 107.8,76.4 107.8,66.4 96.8,66.4 	"/>
	<linearGradient id="SVGID_21_" gradientUnits="userSpaceOnUse" x1="1.9829" y1="95.2688" x2="19.9739" y2="90.6646">
		<stop  offset="0" style="stop-color:#4AF4FF"/>
		<stop  offset="0" style="stop-color:#39DF9E"/>
		<stop  offset="1" style="stop-color:#00747B"/>
	</linearGradient>
	<polygon class="st21" points="8.1,90.8 12.5,90.8 3.2,100.1 8.4,100.1 15.5,93 15.5,97.2 19.1,97.2 19.1,87.2 8.1,87.2 	"/>
	<linearGradient id="SVGID_22_" gradientUnits="userSpaceOnUse" x1="24.1548" y1="95.2688" x2="42.1458" y2="90.6646">
		<stop  offset="0" style="stop-color:#4AF4FF"/>
		<stop  offset="0" style="stop-color:#39DF9E"/>
		<stop  offset="1" style="stop-color:#00747B"/>
	</linearGradient>
	<polygon class="st22" points="30.3,90.8 34.6,90.8 25.4,100.1 30.6,100.1 37.6,93 37.7,97.2 41.3,97.2 41.3,87.2 30.3,87.2 	"/>
	<linearGradient id="SVGID_23_" gradientUnits="userSpaceOnUse" x1="46.3267" y1="95.2688" x2="64.3177" y2="90.6646">
		<stop  offset="0" style="stop-color:#4AF4FF"/>
		<stop  offset="0" style="stop-color:#39DF9E"/>
		<stop  offset="1" style="stop-color:#00747B"/>
	</linearGradient>
	<polygon class="st23" points="52.5,90.8 56.8,90.8 47.6,100.1 52.7,100.1 59.8,93 59.9,97.2 63.4,97.2 63.4,87.2 52.5,87.2 	"/>
	<linearGradient id="SVGID_24_" gradientUnits="userSpaceOnUse" x1="68.4986" y1="95.2688" x2="86.4896" y2="90.6646">
		<stop  offset="0" style="stop-color:#4AF4FF"/>
		<stop  offset="0" style="stop-color:#39DF9E"/>
		<stop  offset="1" style="stop-color:#00747B"/>
	</linearGradient>
	<polygon class="st24" points="74.7,90.8 79,90.8 69.7,100.1 74.9,100.1 82,93 82,97.2 85.6,97.2 85.6,87.2 74.7,87.2 	"/>
	<linearGradient id="SVGID_25_" gradientUnits="userSpaceOnUse" x1="90.6705" y1="95.2688" x2="108.6615" y2="90.6646">
		<stop  offset="0" style="stop-color:#4AF4FF"/>
		<stop  offset="0" style="stop-color:#39DF9E"/>
		<stop  offset="1" style="stop-color:#00747B"/>
	</linearGradient>
	<polygon class="st25" points="96.8,90.8 101.2,90.8 91.9,100.1 97.1,100.1 104.1,93 104.2,97.2 107.8,97.2 107.8,87.2 96.8,87.2 	
		"/>
</g>
</svg>
