<svg xmlns="http://www.w3.org/2000/svg" xmlns:xlink="http://www.w3.org/1999/xlink" viewBox="0 0 392.93 512"><defs><style>.cls-1{fill:url(#linear-gradient);}</style><linearGradient id="linear-gradient" y1="256" x2="392.93" y2="256" gradientUnits="userSpaceOnUse"><stop offset="0" stop-color="#39df9e"/><stop offset="1" stop-color="#00747b"/></linearGradient></defs><g id="Layer_2" data-name="Layer 2"><g id="Layer_1-2" data-name="Layer 1"><path class="cls-1" d="M376.5,150.59H316.94V80.31A80.41,80.41,0,0,0,236.62,0h-5a79.84,79.84,0,0,0-35.14,8.11A80.29,80.29,0,0,0,81,80.31v70.28H16.43L0,512H392.93ZM236,28.9c27.68,0,50.86,23.74,50.86,51.41v70.28H241.64V80.31a79.86,79.86,0,0,0-17.27-49.66S226,28.9,236,28.9Zm-39.5,15.61a50,50,0,0,1,15.06,35.8v70.28H181.41V80.31A50.07,50.07,0,0,1,196.46,44.51Zm-85.33,35.8a50.26,50.26,0,0,1,50.2-50.19,49.32,49.32,0,0,1,7.23.53,79.86,79.86,0,0,0-17.27,49.66v70.28H111.13ZM45.21,180.71H81V481.88H31.52Zm65.92,301.17V180.71h40.16v30.11h30.12V180.71H286.82v30.11h30.12V180.71h30.78l13.69,301.17Z"/></g></g></svg>