<svg xmlns="http://www.w3.org/2000/svg" width="189" height="190" fill="none"  xmlns:v="https://vecta.io/nano"><mask id="A" mask-type="alpha" maskUnits="userSpaceOnUse" x="0" y="0" width="189" height="190"><circle cx="94.392" cy="95.125" r="67.011" transform="rotate(38.518 94.392 95.125)" fill="#c4c4c4"/></mask><g mask="url(#A)"><path d="M79.382-.83L-2.684 102.276m140.517-56.582L55.768 148.8m52.965-126.268L26.668 125.638m140.517-56.582L85.119 172.162m9.064-161.211L12.117 114.057m140.518-56.582L70.569 160.581m52.965-126.268L41.469 137.419m140.517-56.582L99.92 183.942M84.148 2.964L2.083 106.07M142.6 49.488L60.534 152.594M113.5 26.326L31.434 129.432M171.951 72.85L89.886 175.955m9.063-161.21L16.884 117.851m140.517-56.582L75.336 164.374m52.965-126.267L46.235 141.212M186.752 84.63l-82.065 103.106M89.166 6.958L7.1 110.063m140.517-56.582L65.552 156.587m52.965-126.268L36.451 133.425m140.518-56.582L94.903 179.949m9.064-161.211L21.901 121.844m140.517-56.582L80.353 168.368M133.318 42.1L51.252 145.206M191.77 88.624L109.704 191.73" stroke="#10a05b"/></g></svg>