<svg xmlns="http://www.w3.org/2000/svg" width="111" height="104" fill="none"  xmlns:v="https://vecta.io/nano"><path opacity=".8" fill-rule="evenodd" d="M3.355 6.716a2.89 2.89 0 0 0 2.888-2.888A2.89 2.89 0 0 0 3.355.94 2.89 2.89 0 0 0 .467 3.828a2.89 2.89 0 0 0 2.888 2.888zm14.776 0a2.89 2.89 0 0 0 2.888-2.888A2.89 2.89 0 0 0 18.132.94a2.89 2.89 0 0 0-2.888 2.888 2.89 2.89 0 0 0 2.888 2.888zm17.86-2.888a2.89 2.89 0 0 1-2.888 2.888 2.89 2.89 0 0 1-2.888-2.888A2.89 2.89 0 0 1 33.104.94a2.89 2.89 0 0 1 2.888 2.888zm11.692 2.888a2.89 2.89 0 0 0 2.888-2.888A2.89 2.89 0 0 0 47.685.94a2.89 2.89 0 0 0-2.888 2.888 2.89 2.89 0 0 0 2.888 2.888zm17.665-2.888a2.89 2.89 0 0 1-2.888 2.888 2.89 2.89 0 0 1-2.888-2.888A2.89 2.89 0 0 1 62.461.94a2.89 2.89 0 0 1 2.888 2.888zm11.888 2.888a2.89 2.89 0 0 0 2.888-2.888A2.89 2.89 0 0 0 77.237.94a2.89 2.89 0 0 0-2.888 2.888 2.89 2.89 0 0 0 2.888 2.888zm17.665-2.888a2.89 2.89 0 0 1-2.888 2.888 2.89 2.89 0 0 1-2.888-2.888A2.89 2.89 0 0 1 92.014.94a2.89 2.89 0 0 1 2.888 2.888zm12.719 2.888a2.89 2.89 0 0 0 2.888-2.888A2.89 2.89 0 0 0 107.621.94a2.89 2.89 0 0 0-2.889 2.888 2.89 2.89 0 0 0 2.889 2.888zM6.244 14.605a2.89 2.89 0 0 1-2.888 2.888 2.89 2.89 0 0 1-2.888-2.888 2.89 2.89 0 0 1 2.888-2.888 2.89 2.89 0 0 1 2.888 2.888zm11.888 2.888a2.89 2.89 0 0 0 2.888-2.888 2.89 2.89 0 0 0-2.888-2.888 2.89 2.89 0 0 0-2.888 2.888 2.89 2.89 0 0 0 2.888 2.888zm17.86-2.888a2.89 2.89 0 0 1-2.888 2.888 2.89 2.89 0 0 1-2.888-2.888 2.89 2.89 0 0 1 2.888-2.888 2.89 2.89 0 0 1 2.888 2.888zm11.692 2.888a2.89 2.89 0 0 0 2.888-2.888 2.89 2.89 0 0 0-2.888-2.888 2.89 2.89 0 0 0-2.888 2.888 2.89 2.89 0 0 0 2.888 2.888zm17.665-2.888a2.89 2.89 0 0 1-2.888 2.888 2.89 2.89 0 0 1-2.888-2.888 2.89 2.89 0 0 1 2.888-2.888 2.89 2.89 0 0 1 2.888 2.888zm11.888 2.888a2.89 2.89 0 0 0 2.888-2.888 2.89 2.89 0 0 0-2.888-2.888 2.89 2.89 0 0 0-2.888 2.888 2.89 2.89 0 0 0 2.888 2.888zm17.665-2.888a2.89 2.89 0 0 1-2.888 2.888 2.89 2.89 0 0 1-2.888-2.888 2.89 2.89 0 0 1 2.888-2.888 2.89 2.89 0 0 1 2.888 2.888zm12.719 2.888a2.89 2.89 0 0 0 2.888-2.888 2.89 2.89 0 0 0-2.888-2.888 2.89 2.89 0 0 0-2.889 2.888 2.89 2.89 0 0 0 2.889 2.888zM6.244 25.381a2.89 2.89 0 0 1-2.888 2.888 2.89 2.89 0 0 1-2.888-2.888 2.89 2.89 0 0 1 2.888-2.888 2.89 2.89 0 0 1 2.888 2.888zm11.888 2.888a2.89 2.89 0 0 0 2.888-2.888 2.89 2.89 0 0 0-2.888-2.888 2.89 2.89 0 0 0-2.888 2.888 2.89 2.89 0 0 0 2.888 2.888zm17.86-2.888a2.89 2.89 0 0 1-2.888 2.888 2.89 2.89 0 0 1-2.888-2.888 2.89 2.89 0 0 1 2.888-2.888 2.89 2.89 0 0 1 2.888 2.888zm11.692 2.888a2.89 2.89 0 0 0 2.888-2.888 2.89 2.89 0 0 0-2.888-2.888 2.89 2.89 0 0 0-2.888 2.888 2.89 2.89 0 0 0 2.888 2.888zm17.665-2.888a2.89 2.89 0 0 1-2.888 2.888 2.89 2.89 0 0 1-2.888-2.888 2.89 2.89 0 0 1 2.888-2.888 2.89 2.89 0 0 1 2.888 2.888zm11.888 2.888a2.89 2.89 0 0 0 2.888-2.888 2.89 2.89 0 0 0-2.888-2.888 2.89 2.89 0 0 0-2.888 2.888 2.89 2.89 0 0 0 2.888 2.888zm17.665-2.888a2.89 2.89 0 0 1-2.888 2.888 2.89 2.89 0 0 1-2.888-2.888 2.89 2.89 0 0 1 2.888-2.888 2.89 2.89 0 0 1 2.888 2.888zm12.719 2.888a2.89 2.89 0 0 0 2.888-2.888 2.89 2.89 0 0 0-2.888-2.888 2.89 2.89 0 0 0-2.889 2.888 2.89 2.89 0 0 0 2.889 2.888zM6.244 36.157a2.89 2.89 0 0 1-2.888 2.888 2.89 2.89 0 0 1-2.888-2.888 2.89 2.89 0 0 1 2.888-2.888 2.89 2.89 0 0 1 2.888 2.888zm11.888 2.888a2.89 2.89 0 0 0 2.888-2.888 2.89 2.89 0 0 0-2.888-2.888 2.89 2.89 0 0 0-2.888 2.888 2.89 2.89 0 0 0 2.888 2.888zm17.86-2.888a2.89 2.89 0 0 1-2.888 2.888 2.89 2.89 0 0 1-2.888-2.888 2.89 2.89 0 0 1 2.888-2.888 2.89 2.89 0 0 1 2.888 2.888zm11.692 2.888a2.89 2.89 0 0 0 2.888-2.888 2.89 2.89 0 0 0-2.888-2.888 2.89 2.89 0 0 0-2.888 2.888 2.89 2.89 0 0 0 2.888 2.888zm17.665-2.888a2.89 2.89 0 0 1-2.888 2.888 2.89 2.89 0 0 1-2.888-2.888 2.89 2.89 0 0 1 2.888-2.888 2.89 2.89 0 0 1 2.888 2.888zm11.888 2.888a2.89 2.89 0 0 0 2.888-2.888 2.89 2.89 0 0 0-2.888-2.888 2.89 2.89 0 0 0-2.888 2.888 2.89 2.89 0 0 0 2.888 2.888zm17.665-2.888a2.89 2.89 0 0 1-2.888 2.888 2.89 2.89 0 0 1-2.888-2.888 2.89 2.89 0 0 1 2.888-2.888 2.89 2.89 0 0 1 2.888 2.888zm12.719 2.888a2.89 2.89 0 0 0 2.888-2.888 2.89 2.89 0 0 0-2.888-2.888 2.89 2.89 0 0 0-2.889 2.888 2.89 2.89 0 0 0 2.889 2.888zM6.244 46.934a2.89 2.89 0 0 1-2.888 2.888 2.89 2.89 0 0 1-2.888-2.888 2.89 2.89 0 0 1 2.888-2.888 2.89 2.89 0 0 1 2.888 2.888zm11.888 2.888a2.89 2.89 0 0 0 2.888-2.888 2.89 2.89 0 0 0-2.888-2.888 2.89 2.89 0 0 0-2.888 2.888 2.89 2.89 0 0 0 2.888 2.888zm17.86-2.888a2.89 2.89 0 0 1-2.888 2.888 2.89 2.89 0 0 1-2.888-2.888 2.89 2.89 0 0 1 2.888-2.888 2.89 2.89 0 0 1 2.888 2.888zm11.692 2.888a2.89 2.89 0 0 0 2.888-2.888 2.89 2.89 0 0 0-2.888-2.888 2.89 2.89 0 0 0-2.888 2.888 2.89 2.89 0 0 0 2.888 2.888zm17.665-2.888a2.89 2.89 0 0 1-2.888 2.888 2.89 2.89 0 0 1-2.888-2.888 2.89 2.89 0 0 1 2.888-2.888 2.89 2.89 0 0 1 2.888 2.888zm11.888 2.888a2.89 2.89 0 0 0 2.888-2.888 2.89 2.89 0 0 0-2.888-2.888 2.89 2.89 0 0 0-2.888 2.888 2.89 2.89 0 0 0 2.888 2.888zm17.665-2.888a2.89 2.89 0 0 1-2.888 2.888 2.89 2.89 0 0 1-2.888-2.888 2.89 2.89 0 0 1 2.888-2.888 2.89 2.89 0 0 1 2.888 2.888zm12.719 2.888a2.89 2.89 0 0 0 2.888-2.888 2.89 2.89 0 0 0-2.888-2.888 2.89 2.89 0 0 0-2.889 2.888 2.89 2.89 0 0 0 2.889 2.888zM6.244 57.71a2.89 2.89 0 0 1-2.888 2.888A2.89 2.89 0 0 1 .467 57.71a2.89 2.89 0 0 1 2.888-2.888 2.89 2.89 0 0 1 2.888 2.888zm11.888 2.888a2.89 2.89 0 0 0 2.888-2.888 2.89 2.89 0 0 0-2.888-2.888 2.89 2.89 0 0 0-2.888 2.888 2.89 2.89 0 0 0 2.888 2.888zm17.86-2.888a2.89 2.89 0 0 1-2.888 2.888 2.89 2.89 0 0 1-2.888-2.888 2.89 2.89 0 0 1 2.888-2.888 2.89 2.89 0 0 1 2.888 2.888zm11.692 2.888a2.89 2.89 0 0 0 2.888-2.888 2.89 2.89 0 0 0-2.888-2.888 2.89 2.89 0 0 0-2.888 2.888 2.89 2.89 0 0 0 2.888 2.888zm17.665-2.888a2.89 2.89 0 0 1-2.888 2.888 2.89 2.89 0 0 1-2.888-2.888 2.89 2.89 0 0 1 2.888-2.888 2.89 2.89 0 0 1 2.888 2.888zm11.888 2.888a2.89 2.89 0 0 0 2.888-2.888 2.89 2.89 0 0 0-2.888-2.888 2.89 2.89 0 0 0-2.888 2.888 2.89 2.89 0 0 0 2.888 2.888zm17.665-2.888a2.89 2.89 0 0 1-2.888 2.888 2.89 2.89 0 0 1-2.888-2.888 2.89 2.89 0 0 1 2.888-2.888 2.89 2.89 0 0 1 2.888 2.888zm12.719 2.888a2.89 2.89 0 0 0 2.888-2.888 2.89 2.89 0 0 0-2.888-2.888 2.89 2.89 0 0 0-2.889 2.888 2.89 2.89 0 0 0 2.889 2.888zM6.244 68.486a2.89 2.89 0 0 1-2.888 2.888 2.89 2.89 0 0 1-2.888-2.888 2.89 2.89 0 0 1 2.888-2.888 2.89 2.89 0 0 1 2.888 2.888zm11.888 2.888a2.89 2.89 0 0 0 2.888-2.888 2.89 2.89 0 0 0-2.888-2.888 2.89 2.89 0 0 0-2.888 2.888 2.89 2.89 0 0 0 2.888 2.888zm17.86-2.888a2.89 2.89 0 0 1-2.888 2.888 2.89 2.89 0 0 1-2.888-2.888 2.89 2.89 0 0 1 2.888-2.888 2.89 2.89 0 0 1 2.888 2.888zm11.692 2.888a2.89 2.89 0 0 0 2.888-2.888 2.89 2.89 0 0 0-2.888-2.888 2.89 2.89 0 0 0-2.888 2.888 2.89 2.89 0 0 0 2.888 2.888zm17.665-2.888a2.89 2.89 0 0 1-2.888 2.888 2.89 2.89 0 0 1-2.888-2.888 2.89 2.89 0 0 1 2.888-2.888 2.89 2.89 0 0 1 2.888 2.888zm11.888 2.888a2.89 2.89 0 0 0 2.888-2.888 2.89 2.89 0 0 0-2.888-2.888 2.89 2.89 0 0 0-2.888 2.888 2.89 2.89 0 0 0 2.888 2.888zm17.665-2.888a2.89 2.89 0 0 1-2.888 2.888 2.89 2.89 0 0 1-2.888-2.888 2.89 2.89 0 0 1 2.888-2.888 2.89 2.89 0 0 1 2.888 2.888zm12.719 2.888a2.89 2.89 0 0 0 2.888-2.888 2.89 2.89 0 0 0-2.888-2.888 2.89 2.89 0 0 0-2.889 2.888 2.89 2.89 0 0 0 2.889 2.888zM6.244 79.263a2.89 2.89 0 0 1-2.888 2.888 2.89 2.89 0 0 1-2.888-2.888 2.89 2.89 0 0 1 2.888-2.888 2.89 2.89 0 0 1 2.888 2.888zm11.888 2.888a2.89 2.89 0 0 0 2.888-2.888 2.89 2.89 0 0 0-2.888-2.888 2.89 2.89 0 0 0-2.888 2.888 2.89 2.89 0 0 0 2.888 2.888zm17.86-2.888a2.89 2.89 0 0 1-2.888 2.888 2.89 2.89 0 0 1-2.888-2.888 2.89 2.89 0 0 1 2.888-2.888 2.89 2.89 0 0 1 2.888 2.888zm11.692 2.888a2.89 2.89 0 0 0 2.888-2.888 2.89 2.89 0 0 0-2.888-2.888 2.89 2.89 0 0 0-2.888 2.888 2.89 2.89 0 0 0 2.888 2.888zm17.665-2.888a2.89 2.89 0 0 1-2.888 2.888 2.89 2.89 0 0 1-2.888-2.888 2.89 2.89 0 0 1 2.888-2.888 2.89 2.89 0 0 1 2.888 2.888zm11.888 2.888a2.89 2.89 0 0 0 2.888-2.888 2.89 2.89 0 0 0-2.888-2.888 2.89 2.89 0 0 0-2.888 2.888 2.89 2.89 0 0 0 2.888 2.888zm17.665-2.888a2.89 2.89 0 0 1-2.888 2.888 2.89 2.89 0 0 1-2.888-2.888 2.89 2.89 0 0 1 2.888-2.888 2.89 2.89 0 0 1 2.888 2.888zm12.719 2.888a2.89 2.89 0 0 0 2.888-2.888 2.89 2.89 0 0 0-2.888-2.888 2.89 2.89 0 0 0-2.889 2.888 2.89 2.89 0 0 0 2.889 2.888zM6.244 90.039a2.89 2.89 0 0 1-2.888 2.888 2.89 2.89 0 0 1-2.888-2.888 2.89 2.89 0 0 1 2.888-2.888 2.89 2.89 0 0 1 2.888 2.888zm11.888 2.888a2.89 2.89 0 0 0 2.888-2.888 2.89 2.89 0 0 0-2.888-2.888 2.89 2.89 0 0 0-2.888 2.888 2.89 2.89 0 0 0 2.888 2.888zm17.86-2.888a2.89 2.89 0 0 1-2.888 2.888 2.89 2.89 0 0 1-2.888-2.888 2.89 2.89 0 0 1 2.888-2.888 2.89 2.89 0 0 1 2.888 2.888zm11.692 2.888a2.89 2.89 0 0 0 2.888-2.888 2.89 2.89 0 0 0-2.888-2.888 2.89 2.89 0 0 0-2.888 2.888 2.89 2.89 0 0 0 2.888 2.888zm17.665-2.888a2.89 2.89 0 0 1-2.888 2.888 2.89 2.89 0 0 1-2.888-2.888 2.89 2.89 0 0 1 2.888-2.888 2.89 2.89 0 0 1 2.888 2.888zm11.888 2.888a2.89 2.89 0 0 0 2.888-2.888 2.89 2.89 0 0 0-2.888-2.888 2.89 2.89 0 0 0-2.888 2.888 2.89 2.89 0 0 0 2.888 2.888zm17.665-2.888a2.89 2.89 0 0 1-2.888 2.888 2.89 2.89 0 0 1-2.888-2.888 2.89 2.89 0 0 1 2.888-2.888 2.89 2.89 0 0 1 2.888 2.888zm12.719 2.888a2.89 2.89 0 0 0 2.888-2.888 2.89 2.89 0 0 0-2.888-2.888 2.89 2.89 0 0 0-2.889 2.888 2.89 2.89 0 0 0 2.889 2.888zM6.244 100.815a2.89 2.89 0 0 1-2.888 2.889 2.89 2.89 0 0 1-2.888-2.889 2.89 2.89 0 0 1 2.888-2.888 2.89 2.89 0 0 1 2.888 2.888zm11.888 2.889a2.89 2.89 0 0 0 2.888-2.889 2.89 2.89 0 0 0-2.888-2.888 2.89 2.89 0 0 0-2.888 2.888 2.89 2.89 0 0 0 2.888 2.889zm17.86-2.889a2.89 2.89 0 0 1-2.888 2.889 2.89 2.89 0 0 1-2.888-2.889 2.89 2.89 0 0 1 2.888-2.888 2.89 2.89 0 0 1 2.888 2.888zm11.692 2.889a2.89 2.89 0 0 0 2.888-2.889 2.89 2.89 0 0 0-2.888-2.888 2.89 2.89 0 0 0-2.888 2.888 2.89 2.89 0 0 0 2.888 2.889zm17.665-2.889a2.89 2.89 0 0 1-2.888 2.889 2.89 2.89 0 0 1-2.888-2.889 2.89 2.89 0 0 1 2.888-2.888 2.89 2.89 0 0 1 2.888 2.888zm11.888 2.889a2.89 2.89 0 0 0 2.888-2.889 2.89 2.89 0 0 0-2.888-2.888 2.89 2.89 0 0 0-2.888 2.888 2.89 2.89 0 0 0 2.888 2.889zm17.665-2.889a2.89 2.89 0 0 1-2.888 2.889 2.89 2.89 0 0 1-2.888-2.889 2.89 2.89 0 0 1 2.888-2.888 2.89 2.89 0 0 1 2.888 2.888zm12.719 2.889a2.89 2.89 0 0 0 2.888-2.889 2.89 2.89 0 0 0-2.888-2.888 2.89 2.89 0 0 0-2.889 2.888 2.89 2.89 0 0 0 2.889 2.889z" fill="url(#A)"/><defs><linearGradient id="A" x1="27.958" y1="-280.438" x2="220.316" y2="-231.21" gradientUnits="userSpaceOnUse"><stop stop-color="#4af4ff"/><stop offset="0" stop-color="#39df9e"/><stop offset="1" stop-color="#00747b"/></linearGradient></defs></svg>