<svg xmlns="http://www.w3.org/2000/svg" xmlns:xlink="http://www.w3.org/1999/xlink" viewBox="0 0 563.74 480.07"><defs><style>.cls-1{fill:url(#linear-gradient);}</style><linearGradient id="linear-gradient" y1="240.04" x2="563.74" y2="240.04" gradientUnits="userSpaceOnUse"><stop offset="0" stop-color="#39df9e"/><stop offset="1" stop-color="#00747b"/></linearGradient></defs><g id="Layer_2" data-name="Layer 2"><g id="Layer_1-2" data-name="Layer 1"><path class="cls-1" d="M549.57,451.75h-36V229.1h36a14.16,14.16,0,0,0,12.94-19.91L495.58,58.6a14.16,14.16,0,0,0-12.93-8.41H396.42v-36a14.16,14.16,0,0,0-28.32,0v36h-287A14.19,14.19,0,0,0,68.15,58.6L1.23,209.19A14.16,14.16,0,0,0,14.17,229.1h36V451.75h-36a14.16,14.16,0,1,0,0,28.32h535.4a14.16,14.16,0,0,0,0-28.32ZM485.22,229.1V451.75h-88.8V229.1Zm-317.9,0V451.75H78.52V229.1ZM281.87,401.54a14.18,14.18,0,0,0-14.16,14.16v36.05H195.64V222l86.23-64.67L368.1,222V451.75H296V415.7A14.18,14.18,0,0,0,281.87,401.54ZM527.79,200.78H387l-96.61-72.46a14.18,14.18,0,0,0-17,0l-96.61,72.46H36L90.29,78.51H473.45Z"/></g></g></svg>