<svg xmlns="http://www.w3.org/2000/svg" xmlns:xlink="http://www.w3.org/1999/xlink" viewBox="0 0 504.16 517"><defs><style>.cls-1{fill:url(#linear-gradient);}.cls-2{fill:url(#linear-gradient-2);}.cls-3{fill:url(#linear-gradient-3);}.cls-4{fill:url(#linear-gradient-4);}.cls-5{fill:url(#linear-gradient-5);}</style><linearGradient id="linear-gradient" x1="133.43" y1="217.44" x2="370.73" y2="217.44" gradientUnits="userSpaceOnUse"><stop offset="0" stop-color="#39df9e"/><stop offset="1" stop-color="#00747b"/></linearGradient><linearGradient id="linear-gradient-2" x1="215.71" y1="217.46" x2="288.46" y2="217.46" xlink:href="#linear-gradient"/><linearGradient id="linear-gradient-3" x1="0" y1="258.5" x2="504.16" y2="258.5" xlink:href="#linear-gradient"/><linearGradient id="linear-gradient-4" x1="106.84" y1="504.36" x2="131.87" y2="504.36" xlink:href="#linear-gradient"/><linearGradient id="linear-gradient-5" x1="372.28" y1="504.5" x2="397.29" y2="504.5" xlink:href="#linear-gradient"/></defs><g id="Layer_2" data-name="Layer 2"><g id="Layer_1-2" data-name="Layer 1"><path class="cls-1" d="M252.06,335.87c65.44,0,118.67-53.13,118.67-118.43S317.49,99,252.06,99,133.43,152.14,133.43,217.44,186.65,335.87,252.06,335.87ZM158.43,217.44c0-51.52,42-93.43,93.63-93.43s93.67,41.91,93.67,93.43-42,93.43-93.67,93.43S158.43,269,158.43,217.44Z"/><path class="cls-2" d="M221.38,265.9c7.08,4.61,12.77,6.89,19.63,7.78v5.41a12.5,12.5,0,0,0,25,0v-7.85a37.61,37.61,0,0,0,21.95-28c2.8-16.74-6.28-31.84-22.6-37.59h0c-11.24-4-17.66-6.91-21.45-9.88-.35-.27-.86-1.71-.47-3.79.2-1,1.08-4.46,4.4-5.46,7.24-2.16,12.08.89,13.4,1.88a12.5,12.5,0,0,0,15-20A38.56,38.56,0,0,0,266,163.06v-7.24a12.5,12.5,0,0,0-25,0v6.68l-.36.11a31.65,31.65,0,0,0-21.78,24.77c-2.08,11.07,1.62,21.84,9.64,28.12,6.14,4.8,14.41,8.78,28.55,13.76,4.95,1.74,7.05,5.07,6.24,9.88a11.93,11.93,0,0,1-11.85,10.05c-8.33.06-10.31-.26-16.43-4.24a12.5,12.5,0,0,0-13.64,20.95Z"/><path class="cls-3" d="M503.46,313.73,491.78,185.49a44.7,44.7,0,0,0-9.8-24.16,31.24,31.24,0,0,0-21.2-11.56V82.26a12.49,12.49,0,0,0-16-12c-32.23,9.56-73.11,9.78-106.69.57-38.92-10.68-65.2-32.68-74-61.95a12.43,12.43,0,0,0-12-8.9h0a12.42,12.42,0,0,0-12,8.91C220.45,74.31,121.63,88.73,59.42,70.28a12.49,12.49,0,0,0-16.05,12v67.53c-18.25,1.86-29.54,19.39-31,35.71L.7,313.74c-1.35,14.76-1.56,31.84,7,46.63l45.74,78.82a25,25,0,0,0-12.6,21.69v30.95a25.07,25.07,0,0,0,25.06,25h8.41a12.5,12.5,0,1,0,0-25l-8.47,0,.06-30.95h106.9l-.06,31h-8.4a12.5,12.5,0,0,0,0,25h8.4a25.07,25.07,0,0,0,25.06-25V460.88A25.15,25.15,0,0,0,180.34,437a251.72,251.72,0,0,0,3.22-27c18.54,11.24,39.19,22.44,63,34.17a12.73,12.73,0,0,0,11.06,0c23.79-11.72,44.45-22.92,63-34.17a249.63,249.63,0,0,0,3.23,27,25.15,25.15,0,0,0-17.49,23.84v30.95a25.26,25.26,0,0,0,24.84,25l8.41.14h.21a12.5,12.5,0,0,0,.21-25l-8.42-.14c-.16,0-.25-.08-.25,0l.05-30.95h106.9l0,30.87a.34.34,0,0,1-.28.11l-8.41.14a12.5,12.5,0,0,0,.21,25l8.61-.14a25.27,25.27,0,0,0,24.85-25V460.88a25,25,0,0,0-12.6-21.69l45.75-78.82C505,345.59,504.8,328.5,503.46,313.73ZM63.13,325.93,102.33,365A12.5,12.5,0,0,0,120,347.28L80.77,308.21a11.52,11.52,0,0,1-.08-16.27,11.66,11.66,0,0,1,16.42-.05L121,315.57c30.7,30.33,45.29,58.61,34.13,120.31H80.46L29.35,347.82c-4-6.94-5.15-16.46-3.76-31.82L37.27,187.74c.59-6.54,4.56-13.41,9.58-13.12,3.31.17,7.75,1.5,8.18,11.11l4.11,93.13A36.66,36.66,0,0,0,63.13,325.93ZM83.5,264,80,184.63c-.5-11.14-4.62-20.65-11.64-26.94V98.26c35.28,7.28,74.49,5.7,108.09-4.39,34-10.21,60-28.16,75.61-52.07,15.62,23.91,41.66,41.86,75.62,52.07,33.6,10.09,72.81,11.67,108.09,4.39v59.43c-7,6.28-11.13,15.8-11.63,26.94L420.65,264a36.53,36.53,0,0,0-31.18,10.15l-23.92,23.66c-22.06,21.81-34.68,41.8-40.89,64.83a125.87,125.87,0,0,0-3.38,17.57c-19.82,12.81-42.48,25.55-69.21,38.9-26.75-13.37-49.41-26.11-69.19-38.9a126.15,126.15,0,0,0-3.39-17.57c-6.21-23-18.82-43-40.88-64.82L114.67,274.1A36.5,36.5,0,0,0,83.5,264Zm299.63,51.59L407,291.91a11.66,11.66,0,0,1,16.42,0,11.53,11.53,0,0,1-.07,16.29l-39.2,39.06a12.51,12.51,0,0,0,8.8,21.36h0a12.42,12.42,0,0,0,8.82-3.65L441,325.94a36.67,36.67,0,0,0,4-47.07l4.1-93.13c.44-9.61,4.87-11,8.17-11.12,5-.24,9,6.69,9.6,13.14L478.56,316c1.4,15.37.27,24.89-3.76,31.83l-51.1,88.06H349C337.84,374.18,352.43,345.89,383.13,315.56Z"/><path class="cls-4" d="M119.34,491.86a12.5,12.5,0,1,0,12.53,12.5A12.5,12.5,0,0,0,119.34,491.86Z"/><path class="cls-5" d="M384.79,492h0a12.5,12.5,0,1,0,12.53,12.5A12.51,12.51,0,0,0,384.76,492Z"/></g></g></svg>