<?xml version="1.0" encoding="utf-8"?>
<!-- Generator: Adobe Illustrator 25.2.2, SVG Export Plug-In . SVG Version: 6.00 Build 0)  -->
<svg version="1.1" id="Layer_1" xmlns="http://www.w3.org/2000/svg" xmlns:xlink="http://www.w3.org/1999/xlink" x="0px" y="0px"
	 viewBox="0 0 768 252" style="enable-background:new 0 0 768 252;" xml:space="preserve">
<style type="text/css">
	.st0{opacity:0.1;fill:url(#SVGID_1_);enable-background:new    ;}
	.st1{fill:#032D30;}
</style>
<linearGradient id="SVGID_1_" gradientUnits="userSpaceOnUse" x1="64.6244" y1="232.8332" x2="636.9044" y2="48.6032" gradientTransform="matrix(1 0 0 -1 0 254)">
	<stop  offset="0" style="stop-color:#4AF4FF"/>
	<stop  offset="1.000000e-04" style="stop-color:#39DF9E"/>
	<stop  offset="1" style="stop-color:#00747B"/>
</linearGradient>
<path class="st0" d="M283.7,251.9c-22.5,0-40.7-7.8-54.5-23.5c-13.8-16.3-20.7-37.9-20.7-64.8c0-34.4,10-66.7,30.1-96.8
	c20-30.1,44.8-52.3,74.2-66.7l9.4,16c-12.5,10-23.8,22.2-33.8,36.6c-9.4,14.4-16.9,31.9-22.5,52.6l19.7,5.6
	c20,6.3,35.7,15.7,47,28.2c11.9,12.5,17.8,27.9,17.8,46c0,20-6.6,36.3-19.7,48.8C317.5,245.9,301.9,251.9,283.7,251.9z M481,251.9
	c-22.5,0-40.7-7.8-54.5-23.5c-13.8-16.3-20.7-37.9-20.7-64.8c0-34.4,10-66.7,30.1-96.8c20-30.1,44.8-52.3,74.2-66.7l9.4,16
	c-12.5,10-23.8,22.2-33.8,36.6c-9.4,14.4-16.9,31.9-22.5,52.6l19.7,5.6c20,6.3,35.7,15.7,47,28.2c11.9,12.5,17.8,27.9,17.8,46
	c0,20-6.6,36.3-19.7,48.8C514.8,245.9,499.2,251.9,481,251.9z"/>
<path class="st1" d="M11.4,79.4c-3.4,0-6.1-1.2-8.2-3.5c-2.1-2.4-3.1-5.7-3.1-9.7c0-5.2,1.5-10,4.5-14.5s6.7-7.8,11.1-10l1.4,2.4
	c-1.9,1.5-3.6,3.3-5.1,5.5c-1.4,2.2-2.5,4.8-3.4,7.9l3,0.8c3,0.9,5.4,2.3,7,4.2c1.8,1.9,2.7,4.2,2.7,6.9c0,3-1,5.4-3,7.3
	C16.4,78.5,14.1,79.4,11.4,79.4z M41,79.4c-3.4,0-6.1-1.2-8.2-3.5c-2.1-2.4-3.1-5.7-3.1-9.7c0-5.2,1.5-10,4.5-14.5
	c3-4.5,6.7-7.8,11.1-10l1.4,2.4c-1.9,1.5-3.6,3.3-5.1,5.5c-1.4,2.2-2.5,4.8-3.4,7.9l3,0.8c3,0.9,5.4,2.3,7,4.2
	c1.8,1.9,2.7,4.2,2.7,6.9c0,3-1,5.4-3,7.3C46,78.5,43.7,79.4,41,79.4z"/>
<path class="st1" d="M756,174.5c3.4,0,6.1,1.2,8.2,3.5c2.1,2.4,3.1,5.7,3.1,9.7c0,5.2-1.5,10-4.5,14.5c-3,4.5-6.7,7.8-11.1,10
	l-1.4-2.4c1.9-1.5,3.6-3.3,5.1-5.5c1.4-2.2,2.5-4.8,3.4-7.9l-3-0.8c-3-0.9-5.4-2.3-7-4.2c-1.8-1.9-2.7-4.2-2.7-6.9c0-3,1-5.4,3-7.3
	C751,175.4,753.3,174.5,756,174.5z M726.5,174.5c3.4,0,6.1,1.2,8.2,3.5c2.1,2.4,3.1,5.7,3.1,9.7c0,5.2-1.5,10-4.5,14.5
	c-3,4.5-6.7,7.8-11.1,10l-1.4-2.4c1.9-1.5,3.6-3.3,5.1-5.5c1.4-2.2,2.5-4.8,3.4-7.9l-3-0.8c-3-0.9-5.4-2.3-7-4.2
	c-1.8-1.9-2.7-4.2-2.7-6.9c0-3,1-5.4,3-7.3C721.4,175.4,723.7,174.5,726.5,174.5z"/>
</svg>
