<svg xmlns="http://www.w3.org/2000/svg" xmlns:xlink="http://www.w3.org/1999/xlink" viewBox="0 0 512 512"><defs><style>.cls-1{fill:url(#linear-gradient);}.cls-2{fill:url(#linear-gradient-2);}</style><linearGradient id="linear-gradient" y1="256" x2="512" y2="256" gradientUnits="userSpaceOnUse"><stop offset="0" stop-color="#39df9e"/><stop offset="1" stop-color="#00747b"/></linearGradient><linearGradient id="linear-gradient-2" x1="282" y1="95" x2="332" y2="95" xlink:href="#linear-gradient"/></defs><g id="Layer_2" data-name="Layer 2"><g id="Layer_1-2" data-name="Layer 1"><path class="cls-1" d="M157,390H457a15,15,0,0,0,14.64-11.75l40-180A15,15,0,0,0,497,180H392V107.61l.24.21A15,15,0,0,0,411.76,85l-95-81.43a15,15,0,0,0-19.52,0L202.24,85a15,15,0,1,0,19.52,22.78l.24-.21V180H127.39L101,109.73A15,15,0,0,0,87,100H15a15,15,0,0,0,0,30H76.6l26,69.28,36.54,164.43a45,45,0,0,0,14.79,86.17,46,46,0,1,0,86.2.12H343.87a46,46,0,1,0,86.25,0H457a15,15,0,0,0,0-30H157a15,15,0,0,1,0-30Zm56,76a16,16,0,1,1-16-16A16,16,0,0,1,213,466Zm190,0a16,16,0,1,1-16-16A16,16,0,0,1,403,466ZM292,210v60H235.43l-6.67-60Zm93.24,0-6.67,60H322V210ZM322,360V300h53.24l-6.67,60Zm-30-60v60H245.43l-6.67-60Zm-76.76,60H169L155.7,300h52.87Zm183.52,0,6.67-60H458.3L445,360ZM465,270H408.76l6.67-60H478.3ZM252,81.9l55-47.14L362,81.9V180H322V155a15,15,0,0,0-30,0v25H252ZM198.58,210l6.66,60H149L135.7,210Z"/><path class="cls-2" d="M297,110h20a15,15,0,0,0,0-30H297a15,15,0,0,0,0,30Z"/></g></g></svg>